<svg width="800" height="600" viewBox="0 0 800 600" xmlns="http://www.w3.org/2000/svg">
  <defs>
    <!-- Sky Gradient -->
    <linearGradient id="skyGradient" x1="0%" y1="0%" x2="0%" y2="100%">
      <stop offset="0%" stop-color="#0f0c29" />
      <stop offset="50%" stop-color="#302b63" />
      <stop offset="100%" stop-color="#24243e" />
    </linearGradient>

    <!-- Retro Grid Pattern -->
    <pattern id="gridPattern" width="40" height="20" patternUnits="userSpaceOnUse" patternTransform="rotate(0)">
       <path d="M 40 0 L 0 0 0 20" fill="none" stroke="magenta" stroke-width="0.5" opacity="0.2"/>
    </pattern>

    <!-- Floor Glow -->
    <radialGradient id="floorGlow" cx="50%" cy="100%" r="80%">
        <stop offset="0%" stop-color="#ff00cc" stop-opacity="0.15" />
        <stop offset="100%" stop-color="transparent" />
    </radialGradient>
    
    
        <linearGradient id="gradLeft-happy" x1="0%" y1="0%" x2="100%" y2="100%">
            <stop offset="0%" stop-color="#FFD700" stop-opacity="0.8"/>
            <stop offset="100%" stop-color="#050510" stop-opacity="0.9"/>
        </linearGradient>
        <linearGradient id="gradRight-happy" x1="0%" y1="0%" x2="0%" y2="100%">
            <stop offset="0%" stop-color="#FFD700" stop-opacity="0.6"/>
            <stop offset="100%" stop-color="#0b0b1a" stop-opacity="0.8"/>
        </linearGradient>
    

        <linearGradient id="gradLeft-focused" x1="0%" y1="0%" x2="100%" y2="100%">
            <stop offset="0%" stop-color="#00FF94" stop-opacity="0.8"/>
            <stop offset="100%" stop-color="#050510" stop-opacity="0.9"/>
        </linearGradient>
        <linearGradient id="gradRight-focused" x1="0%" y1="0%" x2="0%" y2="100%">
            <stop offset="0%" stop-color="#00FF94" stop-opacity="0.6"/>
            <stop offset="100%" stop-color="#0b0b1a" stop-opacity="0.8"/>
        </linearGradient>
    

        <linearGradient id="gradLeft-calm" x1="0%" y1="0%" x2="100%" y2="100%">
            <stop offset="0%" stop-color="#00C2FF" stop-opacity="0.8"/>
            <stop offset="100%" stop-color="#050510" stop-opacity="0.9"/>
        </linearGradient>
        <linearGradient id="gradRight-calm" x1="0%" y1="0%" x2="0%" y2="100%">
            <stop offset="0%" stop-color="#00C2FF" stop-opacity="0.6"/>
            <stop offset="100%" stop-color="#0b0b1a" stop-opacity="0.8"/>
        </linearGradient>
    

        <linearGradient id="gradLeft-stressed" x1="0%" y1="0%" x2="100%" y2="100%">
            <stop offset="0%" stop-color="#FF2A6D" stop-opacity="0.8"/>
            <stop offset="100%" stop-color="#050510" stop-opacity="0.9"/>
        </linearGradient>
        <linearGradient id="gradRight-stressed" x1="0%" y1="0%" x2="0%" y2="100%">
            <stop offset="0%" stop-color="#FF2A6D" stop-opacity="0.6"/>
            <stop offset="100%" stop-color="#0b0b1a" stop-opacity="0.8"/>
        </linearGradient>
    

        <linearGradient id="gradLeft-energetic" x1="0%" y1="0%" x2="100%" y2="100%">
            <stop offset="0%" stop-color="#D300C5" stop-opacity="0.8"/>
            <stop offset="100%" stop-color="#050510" stop-opacity="0.9"/>
        </linearGradient>
        <linearGradient id="gradRight-energetic" x1="0%" y1="0%" x2="0%" y2="100%">
            <stop offset="0%" stop-color="#D300C5" stop-opacity="0.6"/>
            <stop offset="100%" stop-color="#0b0b1a" stop-opacity="0.8"/>
        </linearGradient>
    
  </defs>

  <!-- Background -->
  <rect width="100%" height="100%" fill="url(#skyGradient)" />
  
  <!-- Stars -->
  <circle cx="246.70351220463527" cy="31.084606885000532" r="0.6115733724156921" fill="white" opacity="0.9781658072386668"/><circle cx="66.52617724688153" cy="85.56726671345065" r="1.244037149765101" fill="white" opacity="0.40225774722771623"/><circle cx="460.40364578157045" cy="209.01701169874644" r="0.35482839923656495" fill="white" opacity="0.4193296150581969"/><circle cx="440.0656562380032" cy="118.66439020634236" r="0.9187782289185698" fill="white" opacity="0.10742209254452617"/><circle cx="2.118542749335006" cy="144.4284792693417" r="0.6424609504656431" fill="white" opacity="0.08787061154611742"/><circle cx="763.6984406871127" cy="66.30316836894501" r="0.7710636282756936" fill="white" opacity="0.0006290285804768647"/><circle cx="620.4920073032822" cy="244.05254253242484" r="1.055056191334042" fill="white" opacity="0.09905493295779544"/><circle cx="712.1056849432847" cy="328.8244518235518" r="1.1539753333061435" fill="white" opacity="0.42886105222823967"/><circle cx="500.25453909281356" cy="326.92613756010275" r="0.48589970533055693" fill="white" opacity="0.6585081899647562"/><circle cx="505.86131647998906" cy="198.19355341858318" r="0.8025694456254834" fill="white" opacity="0.9699463826958066"/><circle cx="218.56643754055494" cy="145.0099977784669" r="0.38080061372181473" fill="white" opacity="0.8320876298831723"/><circle cx="412.4342046736828" cy="68.9857037309375" r="0.5961886956083285" fill="white" opacity="0.966826157266655"/><circle cx="535.3580688807353" cy="121.37068926561265" r="0.773370712218572" fill="white" opacity="0.762736505785838"/><circle cx="615.5850583684836" cy="25.000852537614975" r="0.9856305399806977" fill="white" opacity="0.8745322702754577"/><circle cx="100.77804025498409" cy="236.14603090680777" r="0.9174088430032076" fill="white" opacity="0.32219188335160553"/><circle cx="119.06079386833603" cy="27.791822639641573" r="0.7209277703620608" fill="white" opacity="0.08567184076704004"/><circle cx="352.1107786503942" cy="177.6007792974282" r="0.1007486208129863" fill="white" opacity="0.2971112893241208"/><circle cx="67.53084981276274" cy="351.5856587946115" r="0.8368575060451016" fill="white" opacity="0.18628708804012795"/><circle cx="768.6372118373378" cy="292.20564726612804" r="0.15774753001645692" fill="white" opacity="0.6766595207729298"/><circle cx="70.65559673623163" cy="222.58202711025075" r="0.5843220805188156" fill="white" opacity="0.9438481388475521"/><circle cx="223.6327013333227" cy="215.2504141852029" r="0.7709119969925751" fill="white" opacity="0.6775895021673997"/><circle cx="594.2361417240003" cy="111.23517152970207" r="0.40693897681961533" fill="white" opacity="0.5273644390609882"/><circle cx="286.66769034682795" cy="177.33335360213064" r="0.2585188218497193" fill="white" opacity="0.6043519716235422"/><circle cx="474.8264436981156" cy="57.3890224433273" r="0.9223961473840331" fill="white" opacity="0.13379163662319948"/><circle cx="627.7214497133065" cy="344.4704869713549" r="0.6549223651669572" fill="white" opacity="0.5965120808764872"/><circle cx="296.20100621873695" cy="167.57942788430734" r="0.24193525360283463" fill="white" opacity="0.6852936675131767"/><circle cx="309.60978463744516" cy="347.3667196784459" r="0.540576299885701" fill="white" opacity="0.7761364495212926"/><circle cx="534.0556323868008" cy="132.11721298924078" r="1.1794327933076034" fill="white" opacity="0.3361478758534129"/><circle cx="682.2901983083555" cy="98.9833312501311" r="0.6921425904749166" fill="white" opacity="0.7624197558988692"/><circle cx="329.4301234070785" cy="204.0510992383952" r="1.3664710642372042" fill="white" opacity="0.22994831341485855"/>

  <!-- Perspective Floor Grid (Simulated) -->
  <g transform="translate(0, 300) scale(1, 0.5)">
     <rect x="-800" y="0" width="2400" height="1200" fill="url(#gridPattern)" opacity="0.3" transform="rotate(45, 400, 0)"/>
  </g>
  
  <!-- Horizon Glow -->
  <rect x="0" y="300" width="800" height="300" fill="url(#floorGlow)" />

  <!-- City Label / Branding -->
  <g transform="translate(40, 60)">
      <text fill="cyan" font-family="Verdana, sans-serif" font-size="28" font-weight="900" style="text-shadow: 0 0 10px cyan;">NIMAL DANYATH K CITY</text>
      <text y="25" fill="#ff00cc" font-family="Courier New, monospace" font-size="14" font-weight="bold" letter-spacing="2">POP: 13 // BLOCKS: 27</text>
  </g>

  <!-- The Buildings -->
  <g transform="translate(0, 50)"> 
    
            <a href="https://github.com/nimaldanyathk/repo-verse" target="_blank">
                <g class="building" opacity="0">
                     <animate attributeName="opacity" values="0;1" dur="0.8s" begin="0s" fill="freeze" />
                     
                     <!-- Shadow (Simple Ellipse approx) -->
                     <ellipse cx="400" cy="292.8333333333333" rx="22.5" ry="12" fill="black" opacity="0.4" blur="2" />

                     <!-- Structure -->
                     <path d="M 385 222.11333333333332 l 0 70.72 l 15 7.5 l 0 -70.72 z" fill="url(#gradLeft-focused)" stroke="none" />
                     <path d="M 415 222.11333333333332 l 0 70.72 l -15 7.5 l 0 -70.72 z" fill="url(#gradRight-focused)" stroke="none" />
                     <path d="M 400 214.61333333333332 l 15 7.5 l -15 7.5 l -15 -7.5 z" fill="#E0FFF1" fill-opacity="0.9" stroke="none" />
                     
                     <!-- Glow Edge -->
                     <path d="M 385 222.11333333333332 l 0 70.72 l 15 7.5 l 0 -70.72 z" fill="none" stroke="#00FF94" stroke-width="0.5" opacity="0.5" />
                     <path d="M 415 222.11333333333332 l 0 70.72 l -15 7.5 l 0 -70.72 z" fill="none" stroke="#00FF94" stroke-width="0.5" opacity="0.5" />

                     <!-- Details -->
                     <path d="M 404 277.3333333333333 l 7 4" stroke="#E0FFF1" stroke-width="2" stroke-opacity="0.6" /><path d="M 389 279.3333333333333 l 7 -4" stroke="#E0FFF1" stroke-width="2" stroke-opacity="0.4" /><path d="M 404 267.3333333333333 l 7 4" stroke="#E0FFF1" stroke-width="2" stroke-opacity="0.6" /><path d="M 389 269.3333333333333 l 7 -4" stroke="#E0FFF1" stroke-width="2" stroke-opacity="0.4" /><path d="M 404 257.3333333333333 l 7 4" stroke="#E0FFF1" stroke-width="2" stroke-opacity="0.6" /><path d="M 389 259.3333333333333 l 7 -4" stroke="#E0FFF1" stroke-width="2" stroke-opacity="0.4" /><path d="M 404 237.33333333333331 l 7 4" stroke="#E0FFF1" stroke-width="2" stroke-opacity="0.6" /><path d="M 389 239.33333333333331 l 7 -4" stroke="#E0FFF1" stroke-width="2" stroke-opacity="0.4" /><path d="M 404 227.33333333333331 l 7 4" stroke="#E0FFF1" stroke-width="2" stroke-opacity="0.6" /><path d="M 389 229.33333333333331 l 7 -4" stroke="#E0FFF1" stroke-width="2" stroke-opacity="0.4" />
                     
                <line x1="400" y1="214.61333333333332" x2="400" y2="194.61333333333332" stroke="#E0FFF1" stroke-width="1.5" />
                <circle cx="400" cy="194.61333333333332" r="1.5" fill="white">
                    <animate attributeName="opacity" values="0.2;1;0.2" dur="2.026776919239806s" repeatCount="indefinite" />
                </circle>
             

                     <!-- Tooltip -->
                     <title>repo-verse (TypeScript) | Stars: 12</title>
                </g>
            </a>
        

            <a href="https://github.com/nimaldanyathk/Semicolon-Embedded-C-Project" target="_blank">
                <g class="building" opacity="0">
                     <animate attributeName="opacity" values="0;1" dur="0.8s" begin="0.05s" fill="freeze" />
                     
                     <!-- Shadow (Simple Ellipse approx) -->
                     <ellipse cx="424" cy="302.9133333333333" rx="16.740000000000002" ry="8.928" fill="black" opacity="0.4" blur="2" />

                     <!-- Structure -->
                     <path d="M 412.84 273.0333333333333 l 0 29.88 l 11.16 5.58 l 0 -29.88 z" fill="url(#gradLeft-focused)" stroke="none" />
                     <path d="M 435.16 273.0333333333333 l 0 29.88 l -11.16 5.58 l 0 -29.88 z" fill="url(#gradRight-focused)" stroke="none" />
                     <path d="M 424 267.4533333333333 l 11.16 5.58 l -11.16 5.58 l -11.16 -5.58 z" fill="#E0FFF1" fill-opacity="0.9" stroke="none" />
                     
                     <!-- Glow Edge -->
                     <path d="M 412.84 273.0333333333333 l 0 29.88 l 11.16 5.58 l 0 -29.88 z" fill="none" stroke="#00FF94" stroke-width="0.5" opacity="0.5" />
                     <path d="M 435.16 273.0333333333333 l 0 29.88 l -11.16 5.58 l 0 -29.88 z" fill="none" stroke="#00FF94" stroke-width="0.5" opacity="0.5" />

                     <!-- Details -->
                     
                     

                     <!-- Tooltip -->
                     <title>Semicolon-Embedded-C-Project (C) | Stars: 5</title>
                </g>
            </a>
        

            <a href="https://github.com/nimaldanyathk/Discrete_Mathematics_Algorithms" target="_blank">
                <g class="building" opacity="0">
                     <animate attributeName="opacity" values="0;1" dur="0.8s" begin="0.1s" fill="freeze" />
                     
                     <!-- Shadow (Simple Ellipse approx) -->
                     <ellipse cx="376" cy="301.1358333333333" rx="11.4075" ry="6.0840000000000005" fill="black" opacity="0.4" blur="2" />

                     <!-- Structure -->
                     <path d="M 368.395 281.1358333333333 l 0 20 l 7.605 3.8025 l 0 -20 z" fill="url(#gradLeft-calm)" stroke="none" />
                     <path d="M 383.605 281.1358333333333 l 0 20 l -7.605 3.8025 l 0 -20 z" fill="url(#gradRight-calm)" stroke="none" />
                     <path d="M 376 277.3333333333333 l 7.605 3.8025 l -7.605 3.8025 l -7.605 -3.8025 z" fill="#D1F4FF" fill-opacity="0.9" stroke="none" />
                     
                     <!-- Glow Edge -->
                     <path d="M 368.395 281.1358333333333 l 0 20 l 7.605 3.8025 l 0 -20 z" fill="none" stroke="#00C2FF" stroke-width="0.5" opacity="0.5" />
                     <path d="M 383.605 281.1358333333333 l 0 20 l -7.605 3.8025 l 0 -20 z" fill="none" stroke="#00C2FF" stroke-width="0.5" opacity="0.5" />

                     <!-- Details -->
                     
                     

                     <!-- Tooltip -->
                     <title>Discrete_Mathematics_Algorithms (Python) | Stars: 2</title>
                </g>
            </a>
        

            <a href="https://github.com/nimaldanyathk/sparkd" target="_blank">
                <g class="building" opacity="0">
                     <animate attributeName="opacity" values="0;1" dur="0.8s" begin="0.15000000000000002s" fill="freeze" />
                     
                     <!-- Shadow (Simple Ellipse approx) -->
                     <ellipse cx="448" cy="316.8333333333333" rx="22.5" ry="12" fill="black" opacity="0.4" blur="2" />

                     <!-- Structure -->
                     <path d="M 433 259.8933333333333 l 0 56.94 l 15 7.5 l 0 -56.94 z" fill="url(#gradLeft-calm)" stroke="none" />
                     <path d="M 463 259.8933333333333 l 0 56.94 l -15 7.5 l 0 -56.94 z" fill="url(#gradRight-calm)" stroke="none" />
                     <path d="M 448 252.39333333333332 l 15 7.5 l -15 7.5 l -15 -7.5 z" fill="#D1F4FF" fill-opacity="0.9" stroke="none" />
                     
                     <!-- Glow Edge -->
                     <path d="M 433 259.8933333333333 l 0 56.94 l 15 7.5 l 0 -56.94 z" fill="none" stroke="#00C2FF" stroke-width="0.5" opacity="0.5" />
                     <path d="M 463 259.8933333333333 l 0 56.94 l -15 7.5 l 0 -56.94 z" fill="none" stroke="#00C2FF" stroke-width="0.5" opacity="0.5" />

                     <!-- Details -->
                     <path d="M 452 291.3333333333333 l 7 4" stroke="#D1F4FF" stroke-width="2" stroke-opacity="0.6" /><path d="M 437 293.3333333333333 l 7 -4" stroke="#D1F4FF" stroke-width="2" stroke-opacity="0.4" /><path d="M 452 271.3333333333333 l 7 4" stroke="#D1F4FF" stroke-width="2" stroke-opacity="0.6" />
                     

                     <!-- Tooltip -->
                     <title>sparkd (JavaScript) | Stars: 4</title>
                </g>
            </a>
        

            <a href="https://github.com/nimaldanyathk/Linear_Algebra_Matlab" target="_blank">
                <g class="building" opacity="0">
                     <animate attributeName="opacity" values="0;1" dur="0.8s" begin="0.2s" fill="freeze" />
                     
                     <!-- Shadow (Simple Ellipse approx) -->
                     <ellipse cx="400" cy="316.8333333333333" rx="22.5" ry="12" fill="black" opacity="0.4" blur="2" />

                     <!-- Structure -->
                     <path d="M 385 150.11333333333332 l 0 166.72 l 15 7.5 l 0 -166.72 z" fill="url(#gradLeft-stressed)" stroke="none" />
                     <path d="M 415 150.11333333333332 l 0 166.72 l -15 7.5 l 0 -166.72 z" fill="url(#gradRight-stressed)" stroke="none" />
                     <path d="M 400 142.61333333333332 l 15 7.5 l -15 7.5 l -15 -7.5 z" fill="#FFD1E0" fill-opacity="0.9" stroke="none" />
                     
                     <!-- Glow Edge -->
                     <path d="M 385 150.11333333333332 l 0 166.72 l 15 7.5 l 0 -166.72 z" fill="none" stroke="#FF2A6D" stroke-width="0.5" opacity="0.5" />
                     <path d="M 415 150.11333333333332 l 0 166.72 l -15 7.5 l 0 -166.72 z" fill="none" stroke="#FF2A6D" stroke-width="0.5" opacity="0.5" />

                     <!-- Details -->
                     <path d="M 404 301.3333333333333 l 7 4" stroke="#FFD1E0" stroke-width="2" stroke-opacity="0.6" /><path d="M 389 303.3333333333333 l 7 -4" stroke="#FFD1E0" stroke-width="2" stroke-opacity="0.4" /><path d="M 404 291.3333333333333 l 7 4" stroke="#FFD1E0" stroke-width="2" stroke-opacity="0.6" /><path d="M 389 293.3333333333333 l 7 -4" stroke="#FFD1E0" stroke-width="2" stroke-opacity="0.4" /><path d="M 389 283.3333333333333 l 7 -4" stroke="#FFD1E0" stroke-width="2" stroke-opacity="0.4" /><path d="M 404 271.3333333333333 l 7 4" stroke="#FFD1E0" stroke-width="2" stroke-opacity="0.6" /><path d="M 404 261.3333333333333 l 7 4" stroke="#FFD1E0" stroke-width="2" stroke-opacity="0.6" /><path d="M 389 263.3333333333333 l 7 -4" stroke="#FFD1E0" stroke-width="2" stroke-opacity="0.4" /><path d="M 389 253.33333333333331 l 7 -4" stroke="#FFD1E0" stroke-width="2" stroke-opacity="0.4" /><path d="M 404 241.33333333333331 l 7 4" stroke="#FFD1E0" stroke-width="2" stroke-opacity="0.6" /><path d="M 389 243.33333333333331 l 7 -4" stroke="#FFD1E0" stroke-width="2" stroke-opacity="0.4" /><path d="M 389 233.33333333333331 l 7 -4" stroke="#FFD1E0" stroke-width="2" stroke-opacity="0.4" /><path d="M 389 223.33333333333331 l 7 -4" stroke="#FFD1E0" stroke-width="2" stroke-opacity="0.4" /><path d="M 404 211.33333333333331 l 7 4" stroke="#FFD1E0" stroke-width="2" stroke-opacity="0.6" /><path d="M 404 201.33333333333331 l 7 4" stroke="#FFD1E0" stroke-width="2" stroke-opacity="0.6" /><path d="M 389 203.33333333333331 l 7 -4" stroke="#FFD1E0" stroke-width="2" stroke-opacity="0.4" /><path d="M 404 191.33333333333331 l 7 4" stroke="#FFD1E0" stroke-width="2" stroke-opacity="0.6" /><path d="M 389 193.33333333333331 l 7 -4" stroke="#FFD1E0" stroke-width="2" stroke-opacity="0.4" /><path d="M 404 181.33333333333331 l 7 4" stroke="#FFD1E0" stroke-width="2" stroke-opacity="0.6" /><path d="M 404 171.33333333333331 l 7 4" stroke="#FFD1E0" stroke-width="2" stroke-opacity="0.6" /><path d="M 389 173.33333333333331 l 7 -4" stroke="#FFD1E0" stroke-width="2" stroke-opacity="0.4" /><path d="M 404 161.33333333333331 l 7 4" stroke="#FFD1E0" stroke-width="2" stroke-opacity="0.6" /><path d="M 389 163.33333333333331 l 7 -4" stroke="#FFD1E0" stroke-width="2" stroke-opacity="0.4" />
                     

                     <!-- Tooltip -->
                     <title>Linear_Algebra_Matlab (MATLAB) | Stars: 2</title>
                </g>
            </a>
        

            <a href="https://github.com/nimaldanyathk/E-HealthCare-Management-System" target="_blank">
                <g class="building" opacity="0">
                     <animate attributeName="opacity" values="0;1" dur="0.8s" begin="0.25s" fill="freeze" />
                     
                     <!-- Shadow (Simple Ellipse approx) -->
                     <ellipse cx="352" cy="316.8333333333333" rx="22.5" ry="12" fill="black" opacity="0.4" blur="2" />

                     <!-- Structure -->
                     <path d="M 337 277.5533333333333 l 0 39.28 l 15 7.5 l 0 -39.28 z" fill="url(#gradLeft-energetic)" stroke="none" />
                     <path d="M 367 277.5533333333333 l 0 39.28 l -15 7.5 l 0 -39.28 z" fill="url(#gradRight-energetic)" stroke="none" />
                     <path d="M 352 270.0533333333333 l 15 7.5 l -15 7.5 l -15 -7.5 z" fill="#FAD7FA" fill-opacity="0.9" stroke="none" />
                     
                     <!-- Glow Edge -->
                     <path d="M 337 277.5533333333333 l 0 39.28 l 15 7.5 l 0 -39.28 z" fill="none" stroke="#D300C5" stroke-width="0.5" opacity="0.5" />
                     <path d="M 367 277.5533333333333 l 0 39.28 l -15 7.5 l 0 -39.28 z" fill="none" stroke="#D300C5" stroke-width="0.5" opacity="0.5" />

                     <!-- Details -->
                     
                     

                     <!-- Tooltip -->
                     <title>E-HealthCare-Management-System (null) | Stars: 1</title>
                </g>
            </a>
        

            <a href="https://github.com/nimaldanyathk/TheInspirationalBoat" target="_blank">
                <g class="building" opacity="0">
                     <animate attributeName="opacity" values="0;1" dur="0.8s" begin="0.30000000000000004s" fill="freeze" />
                     
                     <!-- Shadow (Simple Ellipse approx) -->
                     <ellipse cx="472" cy="328.8333333333333" rx="22.5" ry="12" fill="black" opacity="0.4" blur="2" />

                     <!-- Structure -->
                     <path d="M 457 118.83333333333331 l 0 210 l 15 7.5 l 0 -210 z" fill="url(#gradLeft-stressed)" stroke="none" />
                     <path d="M 487 118.83333333333331 l 0 210 l -15 7.5 l 0 -210 z" fill="url(#gradRight-stressed)" stroke="none" />
                     <path d="M 472 111.33333333333331 l 15 7.5 l -15 7.5 l -15 -7.5 z" fill="#FFD1E0" fill-opacity="0.9" stroke="none" />
                     
                     <!-- Glow Edge -->
                     <path d="M 457 118.83333333333331 l 0 210 l 15 7.5 l 0 -210 z" fill="none" stroke="#FF2A6D" stroke-width="0.5" opacity="0.5" />
                     <path d="M 487 118.83333333333331 l 0 210 l -15 7.5 l 0 -210 z" fill="none" stroke="#FF2A6D" stroke-width="0.5" opacity="0.5" />

                     <!-- Details -->
                     <path d="M 476 313.3333333333333 l 7 4" stroke="#FFD1E0" stroke-width="2" stroke-opacity="0.6" /><path d="M 461 315.3333333333333 l 7 -4" stroke="#FFD1E0" stroke-width="2" stroke-opacity="0.4" /><path d="M 476 293.3333333333333 l 7 4" stroke="#FFD1E0" stroke-width="2" stroke-opacity="0.6" /><path d="M 476 283.3333333333333 l 7 4" stroke="#FFD1E0" stroke-width="2" stroke-opacity="0.6" /><path d="M 461 285.3333333333333 l 7 -4" stroke="#FFD1E0" stroke-width="2" stroke-opacity="0.4" /><path d="M 461 275.3333333333333 l 7 -4" stroke="#FFD1E0" stroke-width="2" stroke-opacity="0.4" /><path d="M 476 263.3333333333333 l 7 4" stroke="#FFD1E0" stroke-width="2" stroke-opacity="0.6" /><path d="M 461 265.3333333333333 l 7 -4" stroke="#FFD1E0" stroke-width="2" stroke-opacity="0.4" /><path d="M 476 253.33333333333331 l 7 4" stroke="#FFD1E0" stroke-width="2" stroke-opacity="0.6" /><path d="M 476 243.33333333333331 l 7 4" stroke="#FFD1E0" stroke-width="2" stroke-opacity="0.6" /><path d="M 461 245.33333333333331 l 7 -4" stroke="#FFD1E0" stroke-width="2" stroke-opacity="0.4" /><path d="M 476 233.33333333333331 l 7 4" stroke="#FFD1E0" stroke-width="2" stroke-opacity="0.6" /><path d="M 461 235.33333333333331 l 7 -4" stroke="#FFD1E0" stroke-width="2" stroke-opacity="0.4" /><path d="M 476 223.33333333333331 l 7 4" stroke="#FFD1E0" stroke-width="2" stroke-opacity="0.6" /><path d="M 461 225.33333333333331 l 7 -4" stroke="#FFD1E0" stroke-width="2" stroke-opacity="0.4" /><path d="M 461 215.33333333333331 l 7 -4" stroke="#FFD1E0" stroke-width="2" stroke-opacity="0.4" /><path d="M 476 203.33333333333331 l 7 4" stroke="#FFD1E0" stroke-width="2" stroke-opacity="0.6" /><path d="M 476 193.33333333333331 l 7 4" stroke="#FFD1E0" stroke-width="2" stroke-opacity="0.6" /><path d="M 461 195.33333333333331 l 7 -4" stroke="#FFD1E0" stroke-width="2" stroke-opacity="0.4" /><path d="M 476 183.33333333333331 l 7 4" stroke="#FFD1E0" stroke-width="2" stroke-opacity="0.6" /><path d="M 461 175.33333333333331 l 7 -4" stroke="#FFD1E0" stroke-width="2" stroke-opacity="0.4" /><path d="M 476 163.33333333333331 l 7 4" stroke="#FFD1E0" stroke-width="2" stroke-opacity="0.6" /><path d="M 476 153.33333333333331 l 7 4" stroke="#FFD1E0" stroke-width="2" stroke-opacity="0.6" /><path d="M 461 155.33333333333331 l 7 -4" stroke="#FFD1E0" stroke-width="2" stroke-opacity="0.4" /><path d="M 476 143.33333333333331 l 7 4" stroke="#FFD1E0" stroke-width="2" stroke-opacity="0.6" /><path d="M 461 145.33333333333331 l 7 -4" stroke="#FFD1E0" stroke-width="2" stroke-opacity="0.4" /><path d="M 476 133.33333333333331 l 7 4" stroke="#FFD1E0" stroke-width="2" stroke-opacity="0.6" /><path d="M 476 123.33333333333331 l 7 4" stroke="#FFD1E0" stroke-width="2" stroke-opacity="0.6" />
                     

                     <!-- Tooltip -->
                     <title>TheInspirationalBoat (HTML) | Stars: 2</title>
                </g>
            </a>
        

            <a href="https://github.com/nimaldanyathk/Othello_DAA_Project" target="_blank">
                <g class="building" opacity="0">
                     <animate attributeName="opacity" values="0;1" dur="0.8s" begin="0.35000000000000003s" fill="freeze" />
                     
                     <!-- Shadow (Simple Ellipse approx) -->
                     <ellipse cx="424" cy="328.8333333333333" rx="22.5" ry="12" fill="black" opacity="0.4" blur="2" />

                     <!-- Structure -->
                     <path d="M 409 123.83333333333331 l 0 205 l 15 7.5 l 0 -205 z" fill="url(#gradLeft-stressed)" stroke="none" />
                     <path d="M 439 123.83333333333331 l 0 205 l -15 7.5 l 0 -205 z" fill="url(#gradRight-stressed)" stroke="none" />
                     <path d="M 424 116.33333333333331 l 15 7.5 l -15 7.5 l -15 -7.5 z" fill="#FFD1E0" fill-opacity="0.9" stroke="none" />
                     
                     <!-- Glow Edge -->
                     <path d="M 409 123.83333333333331 l 0 205 l 15 7.5 l 0 -205 z" fill="none" stroke="#FF2A6D" stroke-width="0.5" opacity="0.5" />
                     <path d="M 439 123.83333333333331 l 0 205 l -15 7.5 l 0 -205 z" fill="none" stroke="#FF2A6D" stroke-width="0.5" opacity="0.5" />

                     <!-- Details -->
                     <path d="M 428 313.3333333333333 l 7 4" stroke="#FFD1E0" stroke-width="2" stroke-opacity="0.6" /><path d="M 413 315.3333333333333 l 7 -4" stroke="#FFD1E0" stroke-width="2" stroke-opacity="0.4" /><path d="M 413 305.3333333333333 l 7 -4" stroke="#FFD1E0" stroke-width="2" stroke-opacity="0.4" /><path d="M 413 295.3333333333333 l 7 -4" stroke="#FFD1E0" stroke-width="2" stroke-opacity="0.4" /><path d="M 428 273.3333333333333 l 7 4" stroke="#FFD1E0" stroke-width="2" stroke-opacity="0.6" /><path d="M 413 275.3333333333333 l 7 -4" stroke="#FFD1E0" stroke-width="2" stroke-opacity="0.4" /><path d="M 428 263.3333333333333 l 7 4" stroke="#FFD1E0" stroke-width="2" stroke-opacity="0.6" /><path d="M 413 265.3333333333333 l 7 -4" stroke="#FFD1E0" stroke-width="2" stroke-opacity="0.4" /><path d="M 428 253.33333333333331 l 7 4" stroke="#FFD1E0" stroke-width="2" stroke-opacity="0.6" /><path d="M 413 255.33333333333331 l 7 -4" stroke="#FFD1E0" stroke-width="2" stroke-opacity="0.4" /><path d="M 413 245.33333333333331 l 7 -4" stroke="#FFD1E0" stroke-width="2" stroke-opacity="0.4" /><path d="M 428 233.33333333333331 l 7 4" stroke="#FFD1E0" stroke-width="2" stroke-opacity="0.6" /><path d="M 413 235.33333333333331 l 7 -4" stroke="#FFD1E0" stroke-width="2" stroke-opacity="0.4" /><path d="M 413 225.33333333333331 l 7 -4" stroke="#FFD1E0" stroke-width="2" stroke-opacity="0.4" /><path d="M 413 215.33333333333331 l 7 -4" stroke="#FFD1E0" stroke-width="2" stroke-opacity="0.4" /><path d="M 428 203.33333333333331 l 7 4" stroke="#FFD1E0" stroke-width="2" stroke-opacity="0.6" /><path d="M 413 205.33333333333331 l 7 -4" stroke="#FFD1E0" stroke-width="2" stroke-opacity="0.4" /><path d="M 428 193.33333333333331 l 7 4" stroke="#FFD1E0" stroke-width="2" stroke-opacity="0.6" /><path d="M 413 195.33333333333331 l 7 -4" stroke="#FFD1E0" stroke-width="2" stroke-opacity="0.4" /><path d="M 428 173.33333333333331 l 7 4" stroke="#FFD1E0" stroke-width="2" stroke-opacity="0.6" /><path d="M 413 175.33333333333331 l 7 -4" stroke="#FFD1E0" stroke-width="2" stroke-opacity="0.4" /><path d="M 428 163.33333333333331 l 7 4" stroke="#FFD1E0" stroke-width="2" stroke-opacity="0.6" /><path d="M 413 165.33333333333331 l 7 -4" stroke="#FFD1E0" stroke-width="2" stroke-opacity="0.4" /><path d="M 428 153.33333333333331 l 7 4" stroke="#FFD1E0" stroke-width="2" stroke-opacity="0.6" /><path d="M 413 145.33333333333331 l 7 -4" stroke="#FFD1E0" stroke-width="2" stroke-opacity="0.4" />
                     

                     <!-- Tooltip -->
                     <title>Othello_DAA_Project (Python) | Stars: 1</title>
                </g>
            </a>
        

            <a href="https://github.com/nimaldanyathk/react-bits" target="_blank">
                <g class="building" opacity="0">
                     <animate attributeName="opacity" values="0;1" dur="0.8s" begin="0.4s" fill="freeze" />
                     
                     <!-- Shadow (Simple Ellipse approx) -->
                     <ellipse cx="376" cy="328.8333333333333" rx="22.5" ry="12" fill="black" opacity="0.4" blur="2" />

                     <!-- Structure -->
                     <path d="M 361 123.83333333333331 l 0 205 l 15 7.5 l 0 -205 z" fill="url(#gradLeft-stressed)" stroke="none" />
                     <path d="M 391 123.83333333333331 l 0 205 l -15 7.5 l 0 -205 z" fill="url(#gradRight-stressed)" stroke="none" />
                     <path d="M 376 116.33333333333331 l 15 7.5 l -15 7.5 l -15 -7.5 z" fill="#FFD1E0" fill-opacity="0.9" stroke="none" />
                     
                     <!-- Glow Edge -->
                     <path d="M 361 123.83333333333331 l 0 205 l 15 7.5 l 0 -205 z" fill="none" stroke="#FF2A6D" stroke-width="0.5" opacity="0.5" />
                     <path d="M 391 123.83333333333331 l 0 205 l -15 7.5 l 0 -205 z" fill="none" stroke="#FF2A6D" stroke-width="0.5" opacity="0.5" />

                     <!-- Details -->
                     <path d="M 380 313.3333333333333 l 7 4" stroke="#FFD1E0" stroke-width="2" stroke-opacity="0.6" /><path d="M 365 315.3333333333333 l 7 -4" stroke="#FFD1E0" stroke-width="2" stroke-opacity="0.4" /><path d="M 380 303.3333333333333 l 7 4" stroke="#FFD1E0" stroke-width="2" stroke-opacity="0.6" /><path d="M 380 293.3333333333333 l 7 4" stroke="#FFD1E0" stroke-width="2" stroke-opacity="0.6" /><path d="M 365 295.3333333333333 l 7 -4" stroke="#FFD1E0" stroke-width="2" stroke-opacity="0.4" /><path d="M 380 283.3333333333333 l 7 4" stroke="#FFD1E0" stroke-width="2" stroke-opacity="0.6" /><path d="M 380 273.3333333333333 l 7 4" stroke="#FFD1E0" stroke-width="2" stroke-opacity="0.6" /><path d="M 365 275.3333333333333 l 7 -4" stroke="#FFD1E0" stroke-width="2" stroke-opacity="0.4" /><path d="M 380 263.3333333333333 l 7 4" stroke="#FFD1E0" stroke-width="2" stroke-opacity="0.6" /><path d="M 365 265.3333333333333 l 7 -4" stroke="#FFD1E0" stroke-width="2" stroke-opacity="0.4" /><path d="M 380 253.33333333333331 l 7 4" stroke="#FFD1E0" stroke-width="2" stroke-opacity="0.6" /><path d="M 365 255.33333333333331 l 7 -4" stroke="#FFD1E0" stroke-width="2" stroke-opacity="0.4" /><path d="M 380 243.33333333333331 l 7 4" stroke="#FFD1E0" stroke-width="2" stroke-opacity="0.6" /><path d="M 380 233.33333333333331 l 7 4" stroke="#FFD1E0" stroke-width="2" stroke-opacity="0.6" /><path d="M 365 225.33333333333331 l 7 -4" stroke="#FFD1E0" stroke-width="2" stroke-opacity="0.4" /><path d="M 380 213.33333333333331 l 7 4" stroke="#FFD1E0" stroke-width="2" stroke-opacity="0.6" /><path d="M 365 215.33333333333331 l 7 -4" stroke="#FFD1E0" stroke-width="2" stroke-opacity="0.4" /><path d="M 380 203.33333333333331 l 7 4" stroke="#FFD1E0" stroke-width="2" stroke-opacity="0.6" /><path d="M 365 205.33333333333331 l 7 -4" stroke="#FFD1E0" stroke-width="2" stroke-opacity="0.4" /><path d="M 380 193.33333333333331 l 7 4" stroke="#FFD1E0" stroke-width="2" stroke-opacity="0.6" /><path d="M 365 195.33333333333331 l 7 -4" stroke="#FFD1E0" stroke-width="2" stroke-opacity="0.4" /><path d="M 380 183.33333333333331 l 7 4" stroke="#FFD1E0" stroke-width="2" stroke-opacity="0.6" /><path d="M 365 185.33333333333331 l 7 -4" stroke="#FFD1E0" stroke-width="2" stroke-opacity="0.4" /><path d="M 380 173.33333333333331 l 7 4" stroke="#FFD1E0" stroke-width="2" stroke-opacity="0.6" /><path d="M 380 153.33333333333331 l 7 4" stroke="#FFD1E0" stroke-width="2" stroke-opacity="0.6" /><path d="M 365 155.33333333333331 l 7 -4" stroke="#FFD1E0" stroke-width="2" stroke-opacity="0.4" /><path d="M 380 143.33333333333331 l 7 4" stroke="#FFD1E0" stroke-width="2" stroke-opacity="0.6" /><path d="M 365 145.33333333333331 l 7 -4" stroke="#FFD1E0" stroke-width="2" stroke-opacity="0.4" /><path d="M 380 133.33333333333331 l 7 4" stroke="#FFD1E0" stroke-width="2" stroke-opacity="0.6" /><path d="M 365 135.33333333333331 l 7 -4" stroke="#FFD1E0" stroke-width="2" stroke-opacity="0.4" />
                     

                     <!-- Tooltip -->
                     <title>react-bits (null) | Stars: 1</title>
                </g>
            </a>
        

            <a href="https://github.com/nimaldanyathk/nimaldanyathk" target="_blank">
                <g class="building" opacity="0">
                     <animate attributeName="opacity" values="0;1" dur="0.8s" begin="0.45s" fill="freeze" />
                     
                     <!-- Shadow (Simple Ellipse approx) -->
                     <ellipse cx="448" cy="340.8333333333333" rx="22.5" ry="12" fill="black" opacity="0.4" blur="2" />

                     <!-- Structure -->
                     <path d="M 433 136.3133333333333 l 0 204.52 l 15 7.5 l 0 -204.52 z" fill="url(#gradLeft-stressed)" stroke="none" />
                     <path d="M 463 136.3133333333333 l 0 204.52 l -15 7.5 l 0 -204.52 z" fill="url(#gradRight-stressed)" stroke="none" />
                     <path d="M 448 128.8133333333333 l 15 7.5 l -15 7.5 l -15 -7.5 z" fill="#FFD1E0" fill-opacity="0.9" stroke="none" />
                     
                     <!-- Glow Edge -->
                     <path d="M 433 136.3133333333333 l 0 204.52 l 15 7.5 l 0 -204.52 z" fill="none" stroke="#FF2A6D" stroke-width="0.5" opacity="0.5" />
                     <path d="M 463 136.3133333333333 l 0 204.52 l -15 7.5 l 0 -204.52 z" fill="none" stroke="#FF2A6D" stroke-width="0.5" opacity="0.5" />

                     <!-- Details -->
                     <path d="M 452 325.3333333333333 l 7 4" stroke="#FFD1E0" stroke-width="2" stroke-opacity="0.6" /><path d="M 452 315.3333333333333 l 7 4" stroke="#FFD1E0" stroke-width="2" stroke-opacity="0.6" /><path d="M 437 317.3333333333333 l 7 -4" stroke="#FFD1E0" stroke-width="2" stroke-opacity="0.4" /><path d="M 452 305.3333333333333 l 7 4" stroke="#FFD1E0" stroke-width="2" stroke-opacity="0.6" /><path d="M 452 295.3333333333333 l 7 4" stroke="#FFD1E0" stroke-width="2" stroke-opacity="0.6" /><path d="M 437 297.3333333333333 l 7 -4" stroke="#FFD1E0" stroke-width="2" stroke-opacity="0.4" /><path d="M 437 287.3333333333333 l 7 -4" stroke="#FFD1E0" stroke-width="2" stroke-opacity="0.4" /><path d="M 452 275.3333333333333 l 7 4" stroke="#FFD1E0" stroke-width="2" stroke-opacity="0.6" /><path d="M 437 277.3333333333333 l 7 -4" stroke="#FFD1E0" stroke-width="2" stroke-opacity="0.4" /><path d="M 437 267.3333333333333 l 7 -4" stroke="#FFD1E0" stroke-width="2" stroke-opacity="0.4" /><path d="M 437 257.3333333333333 l 7 -4" stroke="#FFD1E0" stroke-width="2" stroke-opacity="0.4" /><path d="M 452 245.33333333333331 l 7 4" stroke="#FFD1E0" stroke-width="2" stroke-opacity="0.6" /><path d="M 437 247.33333333333331 l 7 -4" stroke="#FFD1E0" stroke-width="2" stroke-opacity="0.4" /><path d="M 452 225.33333333333331 l 7 4" stroke="#FFD1E0" stroke-width="2" stroke-opacity="0.6" /><path d="M 452 215.33333333333331 l 7 4" stroke="#FFD1E0" stroke-width="2" stroke-opacity="0.6" /><path d="M 437 217.33333333333331 l 7 -4" stroke="#FFD1E0" stroke-width="2" stroke-opacity="0.4" /><path d="M 452 205.33333333333331 l 7 4" stroke="#FFD1E0" stroke-width="2" stroke-opacity="0.6" /><path d="M 437 197.33333333333331 l 7 -4" stroke="#FFD1E0" stroke-width="2" stroke-opacity="0.4" /><path d="M 437 187.33333333333331 l 7 -4" stroke="#FFD1E0" stroke-width="2" stroke-opacity="0.4" /><path d="M 452 175.33333333333331 l 7 4" stroke="#FFD1E0" stroke-width="2" stroke-opacity="0.6" /><path d="M 437 177.33333333333331 l 7 -4" stroke="#FFD1E0" stroke-width="2" stroke-opacity="0.4" /><path d="M 437 167.33333333333331 l 7 -4" stroke="#FFD1E0" stroke-width="2" stroke-opacity="0.4" /><path d="M 452 155.33333333333331 l 7 4" stroke="#FFD1E0" stroke-width="2" stroke-opacity="0.6" /><path d="M 437 157.33333333333331 l 7 -4" stroke="#FFD1E0" stroke-width="2" stroke-opacity="0.4" /><path d="M 437 147.33333333333331 l 7 -4" stroke="#FFD1E0" stroke-width="2" stroke-opacity="0.4" />
                     

                     <!-- Tooltip -->
                     <title>nimaldanyathk (null) | Stars: 1</title>
                </g>
            </a>
        
  </g>

  <!-- Footer -->
  <text x="770" y="580" text-anchor="end" fill="rgba(255,255,255,0.4)" font-family="Courier New" font-size="10">GENERATED BY REPOVERSE</text>
</svg>