<svg width="800" height="600" viewBox="0 0 800 600" xmlns="http://www.w3.org/2000/svg">
  <defs>
    <!-- Sky Gradient -->
    <linearGradient id="skyGradient" x1="0%" y1="0%" x2="0%" y2="100%">
      <stop offset="0%" stop-color="#0f0c29" />
      <stop offset="50%" stop-color="#302b63" />
      <stop offset="100%" stop-color="#24243e" />
    </linearGradient>

    <!-- Retro Grid Pattern -->
    <pattern id="gridPattern" width="40" height="20" patternUnits="userSpaceOnUse" patternTransform="rotate(0)">
       <path d="M 40 0 L 0 0 0 20" fill="none" stroke="magenta" stroke-width="0.5" opacity="0.2"/>
    </pattern>

    <!-- Floor Glow -->
    <radialGradient id="floorGlow" cx="50%" cy="100%" r="80%">
        <stop offset="0%" stop-color="#ff00cc" stop-opacity="0.15" />
        <stop offset="100%" stop-color="transparent" />
    </radialGradient>
    
    
        <linearGradient id="gradLeft-happy" x1="0%" y1="0%" x2="100%" y2="100%">
            <stop offset="0%" stop-color="#FFD700" stop-opacity="0.8"/>
            <stop offset="100%" stop-color="#050510" stop-opacity="0.9"/>
        </linearGradient>
        <linearGradient id="gradRight-happy" x1="0%" y1="0%" x2="0%" y2="100%">
            <stop offset="0%" stop-color="#FFD700" stop-opacity="0.6"/>
            <stop offset="100%" stop-color="#0b0b1a" stop-opacity="0.8"/>
        </linearGradient>
    

        <linearGradient id="gradLeft-focused" x1="0%" y1="0%" x2="100%" y2="100%">
            <stop offset="0%" stop-color="#00FF94" stop-opacity="0.8"/>
            <stop offset="100%" stop-color="#050510" stop-opacity="0.9"/>
        </linearGradient>
        <linearGradient id="gradRight-focused" x1="0%" y1="0%" x2="0%" y2="100%">
            <stop offset="0%" stop-color="#00FF94" stop-opacity="0.6"/>
            <stop offset="100%" stop-color="#0b0b1a" stop-opacity="0.8"/>
        </linearGradient>
    

        <linearGradient id="gradLeft-calm" x1="0%" y1="0%" x2="100%" y2="100%">
            <stop offset="0%" stop-color="#00C2FF" stop-opacity="0.8"/>
            <stop offset="100%" stop-color="#050510" stop-opacity="0.9"/>
        </linearGradient>
        <linearGradient id="gradRight-calm" x1="0%" y1="0%" x2="0%" y2="100%">
            <stop offset="0%" stop-color="#00C2FF" stop-opacity="0.6"/>
            <stop offset="100%" stop-color="#0b0b1a" stop-opacity="0.8"/>
        </linearGradient>
    

        <linearGradient id="gradLeft-stressed" x1="0%" y1="0%" x2="100%" y2="100%">
            <stop offset="0%" stop-color="#FF2A6D" stop-opacity="0.8"/>
            <stop offset="100%" stop-color="#050510" stop-opacity="0.9"/>
        </linearGradient>
        <linearGradient id="gradRight-stressed" x1="0%" y1="0%" x2="0%" y2="100%">
            <stop offset="0%" stop-color="#FF2A6D" stop-opacity="0.6"/>
            <stop offset="100%" stop-color="#0b0b1a" stop-opacity="0.8"/>
        </linearGradient>
    

        <linearGradient id="gradLeft-energetic" x1="0%" y1="0%" x2="100%" y2="100%">
            <stop offset="0%" stop-color="#D300C5" stop-opacity="0.8"/>
            <stop offset="100%" stop-color="#050510" stop-opacity="0.9"/>
        </linearGradient>
        <linearGradient id="gradRight-energetic" x1="0%" y1="0%" x2="0%" y2="100%">
            <stop offset="0%" stop-color="#D300C5" stop-opacity="0.6"/>
            <stop offset="100%" stop-color="#0b0b1a" stop-opacity="0.8"/>
        </linearGradient>
    
  </defs>

  <!-- Background -->
  <rect width="100%" height="100%" fill="url(#skyGradient)" />
  
  <!-- Stars -->
  <circle cx="433.29817318354065" cy="351.07000575398837" r="1.4995478779972296" fill="white" opacity="0.14347769456901704"/><circle cx="797.2442762124426" cy="91.76122877794037" r="0.12260943653305811" fill="white" opacity="0.6864931555798339"/><circle cx="211.29474372136661" cy="184.5865531719646" r="0.3155806583933426" fill="white" opacity="0.8477188868516283"/><circle cx="353.9060227114209" cy="82.19732829437211" r="0.3092321452279657" fill="white" opacity="0.8939981360019214"/><circle cx="231.48008362795824" cy="357.834848585563" r="0.5150170127222858" fill="white" opacity="0.2589005137991649"/><circle cx="489.41569672719965" cy="311.5851836947205" r="0.8346612114595141" fill="white" opacity="0.6314620907795334"/><circle cx="688.5082198410165" cy="116.78613496523411" r="0.7651539541198186" fill="white" opacity="0.8521157557815451"/><circle cx="351.0110053709138" cy="92.66327992333292" r="0.3415471399106097" fill="white" opacity="0.38133884696054676"/><circle cx="721.5446223297628" cy="42.02830998917924" r="0.9122717460004391" fill="white" opacity="0.8248721759161293"/><circle cx="496.90140172768747" cy="165.9587528465719" r="0.12948918279550325" fill="white" opacity="0.46127892567342355"/><circle cx="32.19398642315294" cy="341.3046838049388" r="0.7697840600281097" fill="white" opacity="0.7432938588831826"/><circle cx="254.0746138972567" cy="303.4438085411567" r="0.48976704460425435" fill="white" opacity="0.9231001623237858"/><circle cx="520.4991434837243" cy="174.66855016049638" r="0.48124221568544134" fill="white" opacity="0.04389979185663262"/><circle cx="95.42464943378076" cy="25.688526535918008" r="0.9285712074762741" fill="white" opacity="0.8224034750398894"/><circle cx="194.9337432396714" cy="118.9036010862099" r="0.337788342005094" fill="white" opacity="0.8645566331545933"/><circle cx="159.25501213058695" cy="197.6020454648967" r="1.3002452353977676" fill="white" opacity="0.8870237704815898"/><circle cx="714.3105366953439" cy="192.00709356943597" r="0.6262997437700107" fill="white" opacity="0.3964774045550512"/><circle cx="473.4116170105715" cy="136.1971052313993" r="1.3599209410849995" fill="white" opacity="0.6039320315853258"/><circle cx="236.29810551812528" cy="281.17554572612397" r="0.46093650355705595" fill="white" opacity="0.5710108408046404"/><circle cx="417.1381331933013" cy="26.335130730629146" r="0.19001979545148573" fill="white" opacity="0.0526726542444782"/><circle cx="574.2827992199333" cy="78.22482567444585" r="0.009714157648272659" fill="white" opacity="0.658895328010261"/><circle cx="304.0812284848869" cy="234.79450180599355" r="0.9987576178756012" fill="white" opacity="0.7200624592759297"/><circle cx="361.3125211512868" cy="181.4083653885344" r="0.35599830260461784" fill="white" opacity="0.47991392347161654"/><circle cx="587.4514571948166" cy="246.63033903530294" r="0.5991072263353234" fill="white" opacity="0.9805953737066126"/><circle cx="388.2843857502387" cy="266.72479663043237" r="0.38193324262026074" fill="white" opacity="0.03238689378452464"/><circle cx="145.10301613859474" cy="268.9101475859039" r="0.7452835913761429" fill="white" opacity="0.20755218954983756"/><circle cx="365.4905553544568" cy="53.046643880617495" r="1.3872216475775123" fill="white" opacity="0.6243180440129776"/><circle cx="661.4729526336829" cy="237.24391481251" r="0.30142115645395917" fill="white" opacity="0.2995712568324158"/><circle cx="646.6948215631172" cy="37.42353617744588" r="1.167713297872342" fill="white" opacity="0.030899030269228467"/><circle cx="716.9351400818355" cy="36.340008373668816" r="1.1155706514918968" fill="white" opacity="0.21570736940284574"/>

  <!-- Perspective Floor Grid (Simulated) -->
  <g transform="translate(0, 300) scale(1, 0.5)">
     <rect x="-800" y="0" width="2400" height="1200" fill="url(#gridPattern)" opacity="0.3" transform="rotate(45, 400, 0)"/>
  </g>
  
  <!-- Horizon Glow -->
  <rect x="0" y="300" width="800" height="300" fill="url(#floorGlow)" />

  <!-- City Label / Branding -->
  <g transform="translate(40, 60)">
      <text fill="cyan" font-family="Verdana, sans-serif" font-size="28" font-weight="900" style="text-shadow: 0 0 10px cyan;">NIMAL DANYATH K CITY</text>
      <text y="25" fill="#ff00cc" font-family="Courier New, monospace" font-size="14" font-weight="bold" letter-spacing="2">POP: 12 // BLOCKS: 23</text>
  </g>

  <!-- The Buildings -->
  <g transform="translate(0, 50)"> 
    
            <a href="https://github.com/nimaldanyathk/repo-verse" target="_blank">
                <g class="building" opacity="0">
                     <animate attributeName="opacity" values="0;1" dur="0.8s" begin="0s" fill="freeze" />
                     
                     <!-- Shadow (Simple Ellipse approx) -->
                     <ellipse cx="400" cy="291.1083333333333" rx="17.325000000000003" ry="9.24" fill="black" opacity="0.4" blur="2" />

                     <!-- Structure -->
                     <path d="M 388.45 255.70833333333331 l 0 35.4 l 11.55 5.775 l 0 -35.4 z" fill="url(#gradLeft-focused)" stroke="none" />
                     <path d="M 411.55 255.70833333333331 l 0 35.4 l -11.55 5.775 l 0 -35.4 z" fill="url(#gradRight-focused)" stroke="none" />
                     <path d="M 400 249.9333333333333 l 11.55 5.775 l -11.55 5.775 l -11.55 -5.775 z" fill="#E0FFF1" fill-opacity="0.9" stroke="none" />
                     
                     <!-- Glow Edge -->
                     <path d="M 388.45 255.70833333333331 l 0 35.4 l 11.55 5.775 l 0 -35.4 z" fill="none" stroke="#00FF94" stroke-width="0.5" opacity="0.5" />
                     <path d="M 411.55 255.70833333333331 l 0 35.4 l -11.55 5.775 l 0 -35.4 z" fill="none" stroke="#00FF94" stroke-width="0.5" opacity="0.5" />

                     <!-- Details -->
                     
                     

                     <!-- Tooltip -->
                     <title>repo-verse (TypeScript) | Stars: 6</title>
                </g>
            </a>
        

            <a href="https://github.com/nimaldanyathk/Semicolon-Embedded-C-Project" target="_blank">
                <g class="building" opacity="0">
                     <animate attributeName="opacity" values="0;1" dur="0.8s" begin="0.05s" fill="freeze" />
                     
                     <!-- Shadow (Simple Ellipse approx) -->
                     <ellipse cx="424" cy="302.9133333333333" rx="16.740000000000002" ry="8.928" fill="black" opacity="0.4" blur="2" />

                     <!-- Structure -->
                     <path d="M 412.84 268.0333333333333 l 0 34.88 l 11.16 5.58 l 0 -34.88 z" fill="url(#gradLeft-focused)" stroke="none" />
                     <path d="M 435.16 268.0333333333333 l 0 34.88 l -11.16 5.58 l 0 -34.88 z" fill="url(#gradRight-focused)" stroke="none" />
                     <path d="M 424 262.4533333333333 l 11.16 5.58 l -11.16 5.58 l -11.16 -5.58 z" fill="#E0FFF1" fill-opacity="0.9" stroke="none" />
                     
                     <!-- Glow Edge -->
                     <path d="M 412.84 268.0333333333333 l 0 34.88 l 11.16 5.58 l 0 -34.88 z" fill="none" stroke="#00FF94" stroke-width="0.5" opacity="0.5" />
                     <path d="M 435.16 268.0333333333333 l 0 34.88 l -11.16 5.58 l 0 -34.88 z" fill="none" stroke="#00FF94" stroke-width="0.5" opacity="0.5" />

                     <!-- Details -->
                     
                     

                     <!-- Tooltip -->
                     <title>Semicolon-Embedded-C-Project (C) | Stars: 6</title>
                </g>
            </a>
        

            <a href="https://github.com/nimaldanyathk/Discrete_Mathematics_Algorithms" target="_blank">
                <g class="building" opacity="0">
                     <animate attributeName="opacity" values="0;1" dur="0.8s" begin="0.1s" fill="freeze" />
                     
                     <!-- Shadow (Simple Ellipse approx) -->
                     <ellipse cx="376" cy="301.1358333333333" rx="11.4075" ry="6.0840000000000005" fill="black" opacity="0.4" blur="2" />

                     <!-- Structure -->
                     <path d="M 368.395 281.1358333333333 l 0 20 l 7.605 3.8025 l 0 -20 z" fill="url(#gradLeft-calm)" stroke="none" />
                     <path d="M 383.605 281.1358333333333 l 0 20 l -7.605 3.8025 l 0 -20 z" fill="url(#gradRight-calm)" stroke="none" />
                     <path d="M 376 277.3333333333333 l 7.605 3.8025 l -7.605 3.8025 l -7.605 -3.8025 z" fill="#D1F4FF" fill-opacity="0.9" stroke="none" />
                     
                     <!-- Glow Edge -->
                     <path d="M 368.395 281.1358333333333 l 0 20 l 7.605 3.8025 l 0 -20 z" fill="none" stroke="#00C2FF" stroke-width="0.5" opacity="0.5" />
                     <path d="M 383.605 281.1358333333333 l 0 20 l -7.605 3.8025 l 0 -20 z" fill="none" stroke="#00C2FF" stroke-width="0.5" opacity="0.5" />

                     <!-- Details -->
                     
                     

                     <!-- Tooltip -->
                     <title>Discrete_Mathematics_Algorithms (Python) | Stars: 2</title>
                </g>
            </a>
        

            <a href="https://github.com/nimaldanyathk/sparkd" target="_blank">
                <g class="building" opacity="0">
                     <animate attributeName="opacity" values="0;1" dur="0.8s" begin="0.15000000000000002s" fill="freeze" />
                     
                     <!-- Shadow (Simple Ellipse approx) -->
                     <ellipse cx="448" cy="316.8333333333333" rx="22.5" ry="12" fill="black" opacity="0.4" blur="2" />

                     <!-- Structure -->
                     <path d="M 433 254.89333333333332 l 0 61.94 l 15 7.5 l 0 -61.94 z" fill="url(#gradLeft-calm)" stroke="none" />
                     <path d="M 463 254.89333333333332 l 0 61.94 l -15 7.5 l 0 -61.94 z" fill="url(#gradRight-calm)" stroke="none" />
                     <path d="M 448 247.39333333333332 l 15 7.5 l -15 7.5 l -15 -7.5 z" fill="#D1F4FF" fill-opacity="0.9" stroke="none" />
                     
                     <!-- Glow Edge -->
                     <path d="M 433 254.89333333333332 l 0 61.94 l 15 7.5 l 0 -61.94 z" fill="none" stroke="#00C2FF" stroke-width="0.5" opacity="0.5" />
                     <path d="M 463 254.89333333333332 l 0 61.94 l -15 7.5 l 0 -61.94 z" fill="none" stroke="#00C2FF" stroke-width="0.5" opacity="0.5" />

                     <!-- Details -->
                     <path d="M 437 303.3333333333333 l 7 -4" stroke="#D1F4FF" stroke-width="2" stroke-opacity="0.4" /><path d="M 452 291.3333333333333 l 7 4" stroke="#D1F4FF" stroke-width="2" stroke-opacity="0.6" /><path d="M 437 293.3333333333333 l 7 -4" stroke="#D1F4FF" stroke-width="2" stroke-opacity="0.4" /><path d="M 452 281.3333333333333 l 7 4" stroke="#D1F4FF" stroke-width="2" stroke-opacity="0.6" /><path d="M 452 271.3333333333333 l 7 4" stroke="#D1F4FF" stroke-width="2" stroke-opacity="0.6" /><path d="M 452 261.3333333333333 l 7 4" stroke="#D1F4FF" stroke-width="2" stroke-opacity="0.6" /><path d="M 437 263.3333333333333 l 7 -4" stroke="#D1F4FF" stroke-width="2" stroke-opacity="0.4" />
                     

                     <!-- Tooltip -->
                     <title>sparkd (JavaScript) | Stars: 5</title>
                </g>
            </a>
        

            <a href="https://github.com/nimaldanyathk/Linear_Algebra_Matlab" target="_blank">
                <g class="building" opacity="0">
                     <animate attributeName="opacity" values="0;1" dur="0.8s" begin="0.2s" fill="freeze" />
                     
                     <!-- Shadow (Simple Ellipse approx) -->
                     <ellipse cx="400" cy="316.8333333333333" rx="22.5" ry="12" fill="black" opacity="0.4" blur="2" />

                     <!-- Structure -->
                     <path d="M 385 150.11333333333332 l 0 166.72 l 15 7.5 l 0 -166.72 z" fill="url(#gradLeft-stressed)" stroke="none" />
                     <path d="M 415 150.11333333333332 l 0 166.72 l -15 7.5 l 0 -166.72 z" fill="url(#gradRight-stressed)" stroke="none" />
                     <path d="M 400 142.61333333333332 l 15 7.5 l -15 7.5 l -15 -7.5 z" fill="#FFD1E0" fill-opacity="0.9" stroke="none" />
                     
                     <!-- Glow Edge -->
                     <path d="M 385 150.11333333333332 l 0 166.72 l 15 7.5 l 0 -166.72 z" fill="none" stroke="#FF2A6D" stroke-width="0.5" opacity="0.5" />
                     <path d="M 415 150.11333333333332 l 0 166.72 l -15 7.5 l 0 -166.72 z" fill="none" stroke="#FF2A6D" stroke-width="0.5" opacity="0.5" />

                     <!-- Details -->
                     <path d="M 404 301.3333333333333 l 7 4" stroke="#FFD1E0" stroke-width="2" stroke-opacity="0.6" /><path d="M 389 303.3333333333333 l 7 -4" stroke="#FFD1E0" stroke-width="2" stroke-opacity="0.4" /><path d="M 404 291.3333333333333 l 7 4" stroke="#FFD1E0" stroke-width="2" stroke-opacity="0.6" /><path d="M 389 283.3333333333333 l 7 -4" stroke="#FFD1E0" stroke-width="2" stroke-opacity="0.4" /><path d="M 404 271.3333333333333 l 7 4" stroke="#FFD1E0" stroke-width="2" stroke-opacity="0.6" /><path d="M 389 273.3333333333333 l 7 -4" stroke="#FFD1E0" stroke-width="2" stroke-opacity="0.4" /><path d="M 404 251.33333333333331 l 7 4" stroke="#FFD1E0" stroke-width="2" stroke-opacity="0.6" /><path d="M 389 253.33333333333331 l 7 -4" stroke="#FFD1E0" stroke-width="2" stroke-opacity="0.4" /><path d="M 389 233.33333333333331 l 7 -4" stroke="#FFD1E0" stroke-width="2" stroke-opacity="0.4" /><path d="M 404 221.33333333333331 l 7 4" stroke="#FFD1E0" stroke-width="2" stroke-opacity="0.6" /><path d="M 389 223.33333333333331 l 7 -4" stroke="#FFD1E0" stroke-width="2" stroke-opacity="0.4" /><path d="M 404 211.33333333333331 l 7 4" stroke="#FFD1E0" stroke-width="2" stroke-opacity="0.6" /><path d="M 389 213.33333333333331 l 7 -4" stroke="#FFD1E0" stroke-width="2" stroke-opacity="0.4" /><path d="M 404 201.33333333333331 l 7 4" stroke="#FFD1E0" stroke-width="2" stroke-opacity="0.6" /><path d="M 389 203.33333333333331 l 7 -4" stroke="#FFD1E0" stroke-width="2" stroke-opacity="0.4" /><path d="M 404 191.33333333333331 l 7 4" stroke="#FFD1E0" stroke-width="2" stroke-opacity="0.6" /><path d="M 404 181.33333333333331 l 7 4" stroke="#FFD1E0" stroke-width="2" stroke-opacity="0.6" /><path d="M 404 171.33333333333331 l 7 4" stroke="#FFD1E0" stroke-width="2" stroke-opacity="0.6" /><path d="M 389 173.33333333333331 l 7 -4" stroke="#FFD1E0" stroke-width="2" stroke-opacity="0.4" /><path d="M 404 161.33333333333331 l 7 4" stroke="#FFD1E0" stroke-width="2" stroke-opacity="0.6" /><path d="M 389 163.33333333333331 l 7 -4" stroke="#FFD1E0" stroke-width="2" stroke-opacity="0.4" />
                     

                     <!-- Tooltip -->
                     <title>Linear_Algebra_Matlab (MATLAB) | Stars: 2</title>
                </g>
            </a>
        

            <a href="https://github.com/nimaldanyathk/react-bits" target="_blank">
                <g class="building" opacity="0">
                     <animate attributeName="opacity" values="0;1" dur="0.8s" begin="0.25s" fill="freeze" />
                     
                     <!-- Shadow (Simple Ellipse approx) -->
                     <ellipse cx="352" cy="316.8333333333333" rx="22.5" ry="12" fill="black" opacity="0.4" blur="2" />

                     <!-- Structure -->
                     <path d="M 337 111.83333333333331 l 0 205 l 15 7.5 l 0 -205 z" fill="url(#gradLeft-stressed)" stroke="none" />
                     <path d="M 367 111.83333333333331 l 0 205 l -15 7.5 l 0 -205 z" fill="url(#gradRight-stressed)" stroke="none" />
                     <path d="M 352 104.33333333333331 l 15 7.5 l -15 7.5 l -15 -7.5 z" fill="#FFD1E0" fill-opacity="0.9" stroke="none" />
                     
                     <!-- Glow Edge -->
                     <path d="M 337 111.83333333333331 l 0 205 l 15 7.5 l 0 -205 z" fill="none" stroke="#FF2A6D" stroke-width="0.5" opacity="0.5" />
                     <path d="M 367 111.83333333333331 l 0 205 l -15 7.5 l 0 -205 z" fill="none" stroke="#FF2A6D" stroke-width="0.5" opacity="0.5" />

                     <!-- Details -->
                     <path d="M 356 301.3333333333333 l 7 4" stroke="#FFD1E0" stroke-width="2" stroke-opacity="0.6" /><path d="M 341 303.3333333333333 l 7 -4" stroke="#FFD1E0" stroke-width="2" stroke-opacity="0.4" /><path d="M 356 291.3333333333333 l 7 4" stroke="#FFD1E0" stroke-width="2" stroke-opacity="0.6" /><path d="M 341 293.3333333333333 l 7 -4" stroke="#FFD1E0" stroke-width="2" stroke-opacity="0.4" /><path d="M 356 281.3333333333333 l 7 4" stroke="#FFD1E0" stroke-width="2" stroke-opacity="0.6" /><path d="M 356 271.3333333333333 l 7 4" stroke="#FFD1E0" stroke-width="2" stroke-opacity="0.6" /><path d="M 341 263.3333333333333 l 7 -4" stroke="#FFD1E0" stroke-width="2" stroke-opacity="0.4" /><path d="M 356 251.33333333333331 l 7 4" stroke="#FFD1E0" stroke-width="2" stroke-opacity="0.6" /><path d="M 341 253.33333333333331 l 7 -4" stroke="#FFD1E0" stroke-width="2" stroke-opacity="0.4" /><path d="M 356 241.33333333333331 l 7 4" stroke="#FFD1E0" stroke-width="2" stroke-opacity="0.6" /><path d="M 341 233.33333333333331 l 7 -4" stroke="#FFD1E0" stroke-width="2" stroke-opacity="0.4" /><path d="M 356 221.33333333333331 l 7 4" stroke="#FFD1E0" stroke-width="2" stroke-opacity="0.6" /><path d="M 341 203.33333333333331 l 7 -4" stroke="#FFD1E0" stroke-width="2" stroke-opacity="0.4" /><path d="M 356 191.33333333333331 l 7 4" stroke="#FFD1E0" stroke-width="2" stroke-opacity="0.6" /><path d="M 341 193.33333333333331 l 7 -4" stroke="#FFD1E0" stroke-width="2" stroke-opacity="0.4" /><path d="M 341 173.33333333333331 l 7 -4" stroke="#FFD1E0" stroke-width="2" stroke-opacity="0.4" /><path d="M 356 161.33333333333331 l 7 4" stroke="#FFD1E0" stroke-width="2" stroke-opacity="0.6" /><path d="M 341 163.33333333333331 l 7 -4" stroke="#FFD1E0" stroke-width="2" stroke-opacity="0.4" /><path d="M 356 141.33333333333331 l 7 4" stroke="#FFD1E0" stroke-width="2" stroke-opacity="0.6" /><path d="M 341 143.33333333333331 l 7 -4" stroke="#FFD1E0" stroke-width="2" stroke-opacity="0.4" /><path d="M 341 133.33333333333331 l 7 -4" stroke="#FFD1E0" stroke-width="2" stroke-opacity="0.4" /><path d="M 356 121.33333333333331 l 7 4" stroke="#FFD1E0" stroke-width="2" stroke-opacity="0.6" /><path d="M 341 123.33333333333331 l 7 -4" stroke="#FFD1E0" stroke-width="2" stroke-opacity="0.4" />
                     

                     <!-- Tooltip -->
                     <title>react-bits (null) | Stars: 1</title>
                </g>
            </a>
        

            <a href="https://github.com/nimaldanyathk/TheInspirationalBoat" target="_blank">
                <g class="building" opacity="0">
                     <animate attributeName="opacity" values="0;1" dur="0.8s" begin="0.30000000000000004s" fill="freeze" />
                     
                     <!-- Shadow (Simple Ellipse approx) -->
                     <ellipse cx="472" cy="328.8333333333333" rx="22.5" ry="12" fill="black" opacity="0.4" blur="2" />

                     <!-- Structure -->
                     <path d="M 457 118.83333333333331 l 0 210 l 15 7.5 l 0 -210 z" fill="url(#gradLeft-stressed)" stroke="none" />
                     <path d="M 487 118.83333333333331 l 0 210 l -15 7.5 l 0 -210 z" fill="url(#gradRight-stressed)" stroke="none" />
                     <path d="M 472 111.33333333333331 l 15 7.5 l -15 7.5 l -15 -7.5 z" fill="#FFD1E0" fill-opacity="0.9" stroke="none" />
                     
                     <!-- Glow Edge -->
                     <path d="M 457 118.83333333333331 l 0 210 l 15 7.5 l 0 -210 z" fill="none" stroke="#FF2A6D" stroke-width="0.5" opacity="0.5" />
                     <path d="M 487 118.83333333333331 l 0 210 l -15 7.5 l 0 -210 z" fill="none" stroke="#FF2A6D" stroke-width="0.5" opacity="0.5" />

                     <!-- Details -->
                     <path d="M 476 313.3333333333333 l 7 4" stroke="#FFD1E0" stroke-width="2" stroke-opacity="0.6" /><path d="M 461 315.3333333333333 l 7 -4" stroke="#FFD1E0" stroke-width="2" stroke-opacity="0.4" /><path d="M 476 303.3333333333333 l 7 4" stroke="#FFD1E0" stroke-width="2" stroke-opacity="0.6" /><path d="M 461 305.3333333333333 l 7 -4" stroke="#FFD1E0" stroke-width="2" stroke-opacity="0.4" /><path d="M 476 283.3333333333333 l 7 4" stroke="#FFD1E0" stroke-width="2" stroke-opacity="0.6" /><path d="M 461 285.3333333333333 l 7 -4" stroke="#FFD1E0" stroke-width="2" stroke-opacity="0.4" /><path d="M 476 273.3333333333333 l 7 4" stroke="#FFD1E0" stroke-width="2" stroke-opacity="0.6" /><path d="M 476 263.3333333333333 l 7 4" stroke="#FFD1E0" stroke-width="2" stroke-opacity="0.6" /><path d="M 461 265.3333333333333 l 7 -4" stroke="#FFD1E0" stroke-width="2" stroke-opacity="0.4" /><path d="M 476 253.33333333333331 l 7 4" stroke="#FFD1E0" stroke-width="2" stroke-opacity="0.6" /><path d="M 476 233.33333333333331 l 7 4" stroke="#FFD1E0" stroke-width="2" stroke-opacity="0.6" /><path d="M 461 235.33333333333331 l 7 -4" stroke="#FFD1E0" stroke-width="2" stroke-opacity="0.4" /><path d="M 476 223.33333333333331 l 7 4" stroke="#FFD1E0" stroke-width="2" stroke-opacity="0.6" /><path d="M 461 225.33333333333331 l 7 -4" stroke="#FFD1E0" stroke-width="2" stroke-opacity="0.4" /><path d="M 476 213.33333333333331 l 7 4" stroke="#FFD1E0" stroke-width="2" stroke-opacity="0.6" /><path d="M 461 215.33333333333331 l 7 -4" stroke="#FFD1E0" stroke-width="2" stroke-opacity="0.4" /><path d="M 476 203.33333333333331 l 7 4" stroke="#FFD1E0" stroke-width="2" stroke-opacity="0.6" /><path d="M 461 205.33333333333331 l 7 -4" stroke="#FFD1E0" stroke-width="2" stroke-opacity="0.4" /><path d="M 476 193.33333333333331 l 7 4" stroke="#FFD1E0" stroke-width="2" stroke-opacity="0.6" /><path d="M 461 195.33333333333331 l 7 -4" stroke="#FFD1E0" stroke-width="2" stroke-opacity="0.4" /><path d="M 476 173.33333333333331 l 7 4" stroke="#FFD1E0" stroke-width="2" stroke-opacity="0.6" /><path d="M 476 163.33333333333331 l 7 4" stroke="#FFD1E0" stroke-width="2" stroke-opacity="0.6" /><path d="M 461 165.33333333333331 l 7 -4" stroke="#FFD1E0" stroke-width="2" stroke-opacity="0.4" /><path d="M 476 153.33333333333331 l 7 4" stroke="#FFD1E0" stroke-width="2" stroke-opacity="0.6" /><path d="M 461 145.33333333333331 l 7 -4" stroke="#FFD1E0" stroke-width="2" stroke-opacity="0.4" /><path d="M 476 133.33333333333331 l 7 4" stroke="#FFD1E0" stroke-width="2" stroke-opacity="0.6" /><path d="M 476 123.33333333333331 l 7 4" stroke="#FFD1E0" stroke-width="2" stroke-opacity="0.6" /><path d="M 461 125.33333333333331 l 7 -4" stroke="#FFD1E0" stroke-width="2" stroke-opacity="0.4" />
                     

                     <!-- Tooltip -->
                     <title>TheInspirationalBoat (HTML) | Stars: 2</title>
                </g>
            </a>
        

            <a href="https://github.com/nimaldanyathk/nimaldanyathk" target="_blank">
                <g class="building" opacity="0">
                     <animate attributeName="opacity" values="0;1" dur="0.8s" begin="0.35000000000000003s" fill="freeze" />
                     
                     <!-- Shadow (Simple Ellipse approx) -->
                     <ellipse cx="424" cy="328.8333333333333" rx="22.5" ry="12" fill="black" opacity="0.4" blur="2" />

                     <!-- Structure -->
                     <path d="M 409 202.4733333333333 l 0 126.36 l 15 7.5 l 0 -126.36 z" fill="url(#gradLeft-energetic)" stroke="none" />
                     <path d="M 439 202.4733333333333 l 0 126.36 l -15 7.5 l 0 -126.36 z" fill="url(#gradRight-energetic)" stroke="none" />
                     <path d="M 424 194.9733333333333 l 15 7.5 l -15 7.5 l -15 -7.5 z" fill="#FAD7FA" fill-opacity="0.9" stroke="none" />
                     
                     <!-- Glow Edge -->
                     <path d="M 409 202.4733333333333 l 0 126.36 l 15 7.5 l 0 -126.36 z" fill="none" stroke="#D300C5" stroke-width="0.5" opacity="0.5" />
                     <path d="M 439 202.4733333333333 l 0 126.36 l -15 7.5 l 0 -126.36 z" fill="none" stroke="#D300C5" stroke-width="0.5" opacity="0.5" />

                     <!-- Details -->
                     <path d="M 428 313.3333333333333 l 7 4" stroke="#FAD7FA" stroke-width="2" stroke-opacity="0.6" /><path d="M 413 315.3333333333333 l 7 -4" stroke="#FAD7FA" stroke-width="2" stroke-opacity="0.4" /><path d="M 428 303.3333333333333 l 7 4" stroke="#FAD7FA" stroke-width="2" stroke-opacity="0.6" /><path d="M 413 295.3333333333333 l 7 -4" stroke="#FAD7FA" stroke-width="2" stroke-opacity="0.4" /><path d="M 428 283.3333333333333 l 7 4" stroke="#FAD7FA" stroke-width="2" stroke-opacity="0.6" /><path d="M 413 285.3333333333333 l 7 -4" stroke="#FAD7FA" stroke-width="2" stroke-opacity="0.4" /><path d="M 428 273.3333333333333 l 7 4" stroke="#FAD7FA" stroke-width="2" stroke-opacity="0.6" /><path d="M 428 263.3333333333333 l 7 4" stroke="#FAD7FA" stroke-width="2" stroke-opacity="0.6" /><path d="M 428 253.33333333333331 l 7 4" stroke="#FAD7FA" stroke-width="2" stroke-opacity="0.6" /><path d="M 413 255.33333333333331 l 7 -4" stroke="#FAD7FA" stroke-width="2" stroke-opacity="0.4" /><path d="M 428 233.33333333333331 l 7 4" stroke="#FAD7FA" stroke-width="2" stroke-opacity="0.6" /><path d="M 428 223.33333333333331 l 7 4" stroke="#FAD7FA" stroke-width="2" stroke-opacity="0.6" /><path d="M 413 225.33333333333331 l 7 -4" stroke="#FAD7FA" stroke-width="2" stroke-opacity="0.4" /><path d="M 428 213.33333333333331 l 7 4" stroke="#FAD7FA" stroke-width="2" stroke-opacity="0.6" /><path d="M 413 215.33333333333331 l 7 -4" stroke="#FAD7FA" stroke-width="2" stroke-opacity="0.4" />
                     

                     <!-- Tooltip -->
                     <title>nimaldanyathk (null) | Stars: 1</title>
                </g>
            </a>
        

            <a href="https://github.com/nimaldanyathk/brAIn" target="_blank">
                <g class="building" opacity="0">
                     <animate attributeName="opacity" values="0;1" dur="0.8s" begin="0.4s" fill="freeze" />
                     
                     <!-- Shadow (Simple Ellipse approx) -->
                     <ellipse cx="376" cy="328.2708333333333" rx="20.8125" ry="11.100000000000001" fill="black" opacity="0.4" blur="2" />

                     <!-- Structure -->
                     <path d="M 362.125 308.2708333333333 l 0 20 l 13.875 6.9375 l 0 -20 z" fill="url(#gradLeft-focused)" stroke="none" />
                     <path d="M 389.875 308.2708333333333 l 0 20 l -13.875 6.9375 l 0 -20 z" fill="url(#gradRight-focused)" stroke="none" />
                     <path d="M 376 301.3333333333333 l 13.875 6.9375 l -13.875 6.9375 l -13.875 -6.9375 z" fill="#E0FFF1" fill-opacity="0.9" stroke="none" />
                     
                     <!-- Glow Edge -->
                     <path d="M 362.125 308.2708333333333 l 0 20 l 13.875 6.9375 l 0 -20 z" fill="none" stroke="#00FF94" stroke-width="0.5" opacity="0.5" />
                     <path d="M 389.875 308.2708333333333 l 0 20 l -13.875 6.9375 l 0 -20 z" fill="none" stroke="#00FF94" stroke-width="0.5" opacity="0.5" />

                     <!-- Details -->
                     
                     

                     <!-- Tooltip -->
                     <title>brAIn (TypeScript) | Stars: 0</title>
                </g>
            </a>
        

            <a href="https://github.com/nimaldanyathk/E-HealthCare-Management-System" target="_blank">
                <g class="building" opacity="0">
                     <animate attributeName="opacity" values="0;1" dur="0.8s" begin="0.45s" fill="freeze" />
                     
                     <!-- Shadow (Simple Ellipse approx) -->
                     <ellipse cx="448" cy="340.8333333333333" rx="22.5" ry="12" fill="black" opacity="0.4" blur="2" />

                     <!-- Structure -->
                     <path d="M 433 301.5533333333333 l 0 39.28 l 15 7.5 l 0 -39.28 z" fill="url(#gradLeft-energetic)" stroke="none" />
                     <path d="M 463 301.5533333333333 l 0 39.28 l -15 7.5 l 0 -39.28 z" fill="url(#gradRight-energetic)" stroke="none" />
                     <path d="M 448 294.0533333333333 l 15 7.5 l -15 7.5 l -15 -7.5 z" fill="#FAD7FA" fill-opacity="0.9" stroke="none" />
                     
                     <!-- Glow Edge -->
                     <path d="M 433 301.5533333333333 l 0 39.28 l 15 7.5 l 0 -39.28 z" fill="none" stroke="#D300C5" stroke-width="0.5" opacity="0.5" />
                     <path d="M 463 301.5533333333333 l 0 39.28 l -15 7.5 l 0 -39.28 z" fill="none" stroke="#D300C5" stroke-width="0.5" opacity="0.5" />

                     <!-- Details -->
                     
                     

                     <!-- Tooltip -->
                     <title>E-HealthCare-Management-System (null) | Stars: 1</title>
                </g>
            </a>
        
  </g>

  <!-- Footer -->
  <text x="770" y="580" text-anchor="end" fill="rgba(255,255,255,0.4)" font-family="Courier New" font-size="10">GENERATED BY REPOVERSE</text>
</svg>