<svg width="800" height="600" viewBox="0 0 800 600" xmlns="http://www.w3.org/2000/svg">
  <defs>
    <!-- Sky Gradient -->
    <linearGradient id="skyGradient" x1="0%" y1="0%" x2="0%" y2="100%">
      <stop offset="0%" stop-color="#0f0c29" />
      <stop offset="50%" stop-color="#302b63" />
      <stop offset="100%" stop-color="#24243e" />
    </linearGradient>

    <!-- Retro Grid Pattern -->
    <pattern id="gridPattern" width="40" height="20" patternUnits="userSpaceOnUse" patternTransform="rotate(0)">
       <path d="M 40 0 L 0 0 0 20" fill="none" stroke="magenta" stroke-width="0.5" opacity="0.2"/>
    </pattern>

    <!-- Floor Glow -->
    <radialGradient id="floorGlow" cx="50%" cy="100%" r="80%">
        <stop offset="0%" stop-color="#ff00cc" stop-opacity="0.15" />
        <stop offset="100%" stop-color="transparent" />
    </radialGradient>
    
    
        <linearGradient id="gradLeft-happy" x1="0%" y1="0%" x2="100%" y2="100%">
            <stop offset="0%" stop-color="#FFD700" stop-opacity="0.8"/>
            <stop offset="100%" stop-color="#050510" stop-opacity="0.9"/>
        </linearGradient>
        <linearGradient id="gradRight-happy" x1="0%" y1="0%" x2="0%" y2="100%">
            <stop offset="0%" stop-color="#FFD700" stop-opacity="0.6"/>
            <stop offset="100%" stop-color="#0b0b1a" stop-opacity="0.8"/>
        </linearGradient>
    

        <linearGradient id="gradLeft-focused" x1="0%" y1="0%" x2="100%" y2="100%">
            <stop offset="0%" stop-color="#00FF94" stop-opacity="0.8"/>
            <stop offset="100%" stop-color="#050510" stop-opacity="0.9"/>
        </linearGradient>
        <linearGradient id="gradRight-focused" x1="0%" y1="0%" x2="0%" y2="100%">
            <stop offset="0%" stop-color="#00FF94" stop-opacity="0.6"/>
            <stop offset="100%" stop-color="#0b0b1a" stop-opacity="0.8"/>
        </linearGradient>
    

        <linearGradient id="gradLeft-calm" x1="0%" y1="0%" x2="100%" y2="100%">
            <stop offset="0%" stop-color="#00C2FF" stop-opacity="0.8"/>
            <stop offset="100%" stop-color="#050510" stop-opacity="0.9"/>
        </linearGradient>
        <linearGradient id="gradRight-calm" x1="0%" y1="0%" x2="0%" y2="100%">
            <stop offset="0%" stop-color="#00C2FF" stop-opacity="0.6"/>
            <stop offset="100%" stop-color="#0b0b1a" stop-opacity="0.8"/>
        </linearGradient>
    

        <linearGradient id="gradLeft-stressed" x1="0%" y1="0%" x2="100%" y2="100%">
            <stop offset="0%" stop-color="#FF2A6D" stop-opacity="0.8"/>
            <stop offset="100%" stop-color="#050510" stop-opacity="0.9"/>
        </linearGradient>
        <linearGradient id="gradRight-stressed" x1="0%" y1="0%" x2="0%" y2="100%">
            <stop offset="0%" stop-color="#FF2A6D" stop-opacity="0.6"/>
            <stop offset="100%" stop-color="#0b0b1a" stop-opacity="0.8"/>
        </linearGradient>
    

        <linearGradient id="gradLeft-energetic" x1="0%" y1="0%" x2="100%" y2="100%">
            <stop offset="0%" stop-color="#D300C5" stop-opacity="0.8"/>
            <stop offset="100%" stop-color="#050510" stop-opacity="0.9"/>
        </linearGradient>
        <linearGradient id="gradRight-energetic" x1="0%" y1="0%" x2="0%" y2="100%">
            <stop offset="0%" stop-color="#D300C5" stop-opacity="0.6"/>
            <stop offset="100%" stop-color="#0b0b1a" stop-opacity="0.8"/>
        </linearGradient>
    
  </defs>

  <!-- Background -->
  <rect width="100%" height="100%" fill="url(#skyGradient)" />
  
  <!-- Stars -->
  <circle cx="416.1157126977596" cy="237.0144700219362" r="1.0235931000710736" fill="white" opacity="0.8671945148274416"/><circle cx="146.4516037790098" cy="352.32150251183987" r="1.1710866422758754" fill="white" opacity="0.041212586426367714"/><circle cx="570.2485543381183" cy="341.27849461795466" r="0.6926223991033887" fill="white" opacity="0.7954293858419432"/><circle cx="633.2332101509161" cy="8.783441803845173" r="1.2542288488992588" fill="white" opacity="0.628863387184047"/><circle cx="142.29262898961218" cy="11.946023356167403" r="0.0255013939497708" fill="white" opacity="0.32334928162819576"/><circle cx="132.05599668293272" cy="273.61526270979346" r="0.774586992024734" fill="white" opacity="0.0009839864801812759"/><circle cx="369.4702097345358" cy="158.64412419515767" r="0.313718712452451" fill="white" opacity="0.27589118665890155"/><circle cx="603.7698455601486" cy="335.5410608935286" r="0.0024333333875645735" fill="white" opacity="0.5745311369632662"/><circle cx="750.0905407491471" cy="143.38587399714172" r="0.452855738382378" fill="white" opacity="0.7813875529502368"/><circle cx="262.005599808886" cy="315.33115556392784" r="0.813573758024122" fill="white" opacity="0.7262753038826619"/><circle cx="481.16318389695147" cy="82.71439524191582" r="0.5054147169527894" fill="white" opacity="0.4429695745749862"/><circle cx="636.5437435308735" cy="34.38938006315473" r="0.11622007195579764" fill="white" opacity="0.5934078229043405"/><circle cx="754.0824373980536" cy="110.87471687230565" r="0.17113273774965299" fill="white" opacity="0.6273243368864101"/><circle cx="400.1585236286139" cy="157.5190250079378" r="0.6570899785745228" fill="white" opacity="0.49505525762689695"/><circle cx="557.8203902112467" cy="187.15824877010792" r="1.08464948358601" fill="white" opacity="0.5143969951414735"/><circle cx="388.0495334503596" cy="190.71332084031653" r="1.4770084672789943" fill="white" opacity="0.29859688505136295"/><circle cx="140.73387288239854" cy="144.73466046543055" r="1.364734525134092" fill="white" opacity="0.115359732674714"/><circle cx="303.3924655865915" cy="267.379664643084" r="1.1037030563891563" fill="white" opacity="0.7079620053021787"/><circle cx="375.8495752305333" cy="327.5584951474505" r="0.7691688676815667" fill="white" opacity="0.31956138945912405"/><circle cx="740.2078860773796" cy="248.66257898103345" r="0.48497004350143746" fill="white" opacity="0.5799933031322548"/><circle cx="595.1346847459232" cy="341.1677961999148" r="0.196549491990323" fill="white" opacity="0.47660537486528454"/><circle cx="719.1391697479228" cy="16.099373454714705" r="0.6782102502098138" fill="white" opacity="0.26175609035992475"/><circle cx="781.5983573463573" cy="246.4041603978925" r="0.15547966561954774" fill="white" opacity="0.44385382722565137"/><circle cx="469.1699017002371" cy="320.1158530482048" r="1.1880729938349834" fill="white" opacity="0.5633488564478064"/><circle cx="684.362268463578" cy="347.8050788200099" r="1.2771152176586127" fill="white" opacity="0.605995381962974"/><circle cx="417.2602442345365" cy="18.366955238161946" r="1.226516667182743" fill="white" opacity="0.4803918184012854"/><circle cx="192.5818048559057" cy="167.1820104023762" r="1.4875523531593613" fill="white" opacity="0.7413301722940335"/><circle cx="761.8392660952414" cy="300.5374263507187" r="1.1307248891234056" fill="white" opacity="0.5469606636482023"/><circle cx="212.42848002221263" cy="156.32740809582725" r="0.3263617349211049" fill="white" opacity="0.22525565381881973"/><circle cx="792.4206687307677" cy="353.39980235688165" r="0.5766725051535175" fill="white" opacity="0.7662529186566651"/>

  <!-- Perspective Floor Grid (Simulated) -->
  <g transform="translate(0, 300) scale(1, 0.5)">
     <rect x="-800" y="0" width="2400" height="1200" fill="url(#gridPattern)" opacity="0.3" transform="rotate(45, 400, 0)"/>
  </g>
  
  <!-- Horizon Glow -->
  <rect x="0" y="300" width="800" height="300" fill="url(#floorGlow)" />

  <!-- City Label / Branding -->
  <g transform="translate(40, 60)">
      <text fill="cyan" font-family="Verdana, sans-serif" font-size="28" font-weight="900" style="text-shadow: 0 0 10px cyan;">NIMAL DANYATH K CITY</text>
      <text y="25" fill="#ff00cc" font-family="Courier New, monospace" font-size="14" font-weight="bold" letter-spacing="2">POP: 13 // BLOCKS: 26</text>
  </g>

  <!-- The Buildings -->
  <g transform="translate(0, 50)"> 
    
            <a href="https://github.com/nimaldanyathk/repo-verse" target="_blank">
                <g class="building" opacity="0">
                     <animate attributeName="opacity" values="0;1" dur="0.8s" begin="0s" fill="freeze" />
                     
                     <!-- Shadow (Simple Ellipse approx) -->
                     <ellipse cx="400" cy="292.7733333333333" rx="22.32" ry="11.904" fill="black" opacity="0.4" blur="2" />

                     <!-- Structure -->
                     <path d="M 385.12 242.9333333333333 l 0 49.84 l 14.879999999999999 7.4399999999999995 l 0 -49.84 z" fill="url(#gradLeft-focused)" stroke="none" />
                     <path d="M 414.88 242.9333333333333 l 0 49.84 l -14.879999999999999 7.4399999999999995 l 0 -49.84 z" fill="url(#gradRight-focused)" stroke="none" />
                     <path d="M 400 235.4933333333333 l 14.879999999999999 7.4399999999999995 l -14.879999999999999 7.4399999999999995 l -14.879999999999999 -7.4399999999999995 z" fill="#E0FFF1" fill-opacity="0.9" stroke="none" />
                     
                     <!-- Glow Edge -->
                     <path d="M 385.12 242.9333333333333 l 0 49.84 l 14.879999999999999 7.4399999999999995 l 0 -49.84 z" fill="none" stroke="#00FF94" stroke-width="0.5" opacity="0.5" />
                     <path d="M 414.88 242.9333333333333 l 0 49.84 l -14.879999999999999 7.4399999999999995 l 0 -49.84 z" fill="none" stroke="#00FF94" stroke-width="0.5" opacity="0.5" />

                     <!-- Details -->
                     <path d="M 389.12 279.3333333333333 l 6.879999999999999 -4" stroke="#E0FFF1" stroke-width="2" stroke-opacity="0.4" /><path d="M 404 267.3333333333333 l 6.879999999999999 4" stroke="#E0FFF1" stroke-width="2" stroke-opacity="0.6" /><path d="M 404 257.3333333333333 l 6.879999999999999 4" stroke="#E0FFF1" stroke-width="2" stroke-opacity="0.6" />
                     

                     <!-- Tooltip -->
                     <title>repo-verse (TypeScript) | Stars: 8</title>
                </g>
            </a>
        

            <a href="https://github.com/nimaldanyathk/Semicolon-Embedded-C-Project" target="_blank">
                <g class="building" opacity="0">
                     <animate attributeName="opacity" values="0;1" dur="0.8s" begin="0.05s" fill="freeze" />
                     
                     <!-- Shadow (Simple Ellipse approx) -->
                     <ellipse cx="424" cy="302.9133333333333" rx="16.740000000000002" ry="8.928" fill="black" opacity="0.4" blur="2" />

                     <!-- Structure -->
                     <path d="M 412.84 273.0333333333333 l 0 29.88 l 11.16 5.58 l 0 -29.88 z" fill="url(#gradLeft-focused)" stroke="none" />
                     <path d="M 435.16 273.0333333333333 l 0 29.88 l -11.16 5.58 l 0 -29.88 z" fill="url(#gradRight-focused)" stroke="none" />
                     <path d="M 424 267.4533333333333 l 11.16 5.58 l -11.16 5.58 l -11.16 -5.58 z" fill="#E0FFF1" fill-opacity="0.9" stroke="none" />
                     
                     <!-- Glow Edge -->
                     <path d="M 412.84 273.0333333333333 l 0 29.88 l 11.16 5.58 l 0 -29.88 z" fill="none" stroke="#00FF94" stroke-width="0.5" opacity="0.5" />
                     <path d="M 435.16 273.0333333333333 l 0 29.88 l -11.16 5.58 l 0 -29.88 z" fill="none" stroke="#00FF94" stroke-width="0.5" opacity="0.5" />

                     <!-- Details -->
                     
                     

                     <!-- Tooltip -->
                     <title>Semicolon-Embedded-C-Project (C) | Stars: 5</title>
                </g>
            </a>
        

            <a href="https://github.com/nimaldanyathk/Discrete_Mathematics_Algorithms" target="_blank">
                <g class="building" opacity="0">
                     <animate attributeName="opacity" values="0;1" dur="0.8s" begin="0.1s" fill="freeze" />
                     
                     <!-- Shadow (Simple Ellipse approx) -->
                     <ellipse cx="376" cy="301.1358333333333" rx="11.4075" ry="6.0840000000000005" fill="black" opacity="0.4" blur="2" />

                     <!-- Structure -->
                     <path d="M 368.395 281.1358333333333 l 0 20 l 7.605 3.8025 l 0 -20 z" fill="url(#gradLeft-calm)" stroke="none" />
                     <path d="M 383.605 281.1358333333333 l 0 20 l -7.605 3.8025 l 0 -20 z" fill="url(#gradRight-calm)" stroke="none" />
                     <path d="M 376 277.3333333333333 l 7.605 3.8025 l -7.605 3.8025 l -7.605 -3.8025 z" fill="#D1F4FF" fill-opacity="0.9" stroke="none" />
                     
                     <!-- Glow Edge -->
                     <path d="M 368.395 281.1358333333333 l 0 20 l 7.605 3.8025 l 0 -20 z" fill="none" stroke="#00C2FF" stroke-width="0.5" opacity="0.5" />
                     <path d="M 383.605 281.1358333333333 l 0 20 l -7.605 3.8025 l 0 -20 z" fill="none" stroke="#00C2FF" stroke-width="0.5" opacity="0.5" />

                     <!-- Details -->
                     
                     

                     <!-- Tooltip -->
                     <title>Discrete_Mathematics_Algorithms (Python) | Stars: 2</title>
                </g>
            </a>
        

            <a href="https://github.com/nimaldanyathk/sparkd" target="_blank">
                <g class="building" opacity="0">
                     <animate attributeName="opacity" values="0;1" dur="0.8s" begin="0.15000000000000002s" fill="freeze" />
                     
                     <!-- Shadow (Simple Ellipse approx) -->
                     <ellipse cx="448" cy="316.8333333333333" rx="22.5" ry="12" fill="black" opacity="0.4" blur="2" />

                     <!-- Structure -->
                     <path d="M 433 259.8933333333333 l 0 56.94 l 15 7.5 l 0 -56.94 z" fill="url(#gradLeft-calm)" stroke="none" />
                     <path d="M 463 259.8933333333333 l 0 56.94 l -15 7.5 l 0 -56.94 z" fill="url(#gradRight-calm)" stroke="none" />
                     <path d="M 448 252.39333333333332 l 15 7.5 l -15 7.5 l -15 -7.5 z" fill="#D1F4FF" fill-opacity="0.9" stroke="none" />
                     
                     <!-- Glow Edge -->
                     <path d="M 433 259.8933333333333 l 0 56.94 l 15 7.5 l 0 -56.94 z" fill="none" stroke="#00C2FF" stroke-width="0.5" opacity="0.5" />
                     <path d="M 463 259.8933333333333 l 0 56.94 l -15 7.5 l 0 -56.94 z" fill="none" stroke="#00C2FF" stroke-width="0.5" opacity="0.5" />

                     <!-- Details -->
                     <path d="M 452 301.3333333333333 l 7 4" stroke="#D1F4FF" stroke-width="2" stroke-opacity="0.6" /><path d="M 437 303.3333333333333 l 7 -4" stroke="#D1F4FF" stroke-width="2" stroke-opacity="0.4" /><path d="M 452 291.3333333333333 l 7 4" stroke="#D1F4FF" stroke-width="2" stroke-opacity="0.6" /><path d="M 452 271.3333333333333 l 7 4" stroke="#D1F4FF" stroke-width="2" stroke-opacity="0.6" />
                     

                     <!-- Tooltip -->
                     <title>sparkd (JavaScript) | Stars: 4</title>
                </g>
            </a>
        

            <a href="https://github.com/nimaldanyathk/Linear_Algebra_Matlab" target="_blank">
                <g class="building" opacity="0">
                     <animate attributeName="opacity" values="0;1" dur="0.8s" begin="0.2s" fill="freeze" />
                     
                     <!-- Shadow (Simple Ellipse approx) -->
                     <ellipse cx="400" cy="316.8333333333333" rx="22.5" ry="12" fill="black" opacity="0.4" blur="2" />

                     <!-- Structure -->
                     <path d="M 385 150.11333333333332 l 0 166.72 l 15 7.5 l 0 -166.72 z" fill="url(#gradLeft-stressed)" stroke="none" />
                     <path d="M 415 150.11333333333332 l 0 166.72 l -15 7.5 l 0 -166.72 z" fill="url(#gradRight-stressed)" stroke="none" />
                     <path d="M 400 142.61333333333332 l 15 7.5 l -15 7.5 l -15 -7.5 z" fill="#FFD1E0" fill-opacity="0.9" stroke="none" />
                     
                     <!-- Glow Edge -->
                     <path d="M 385 150.11333333333332 l 0 166.72 l 15 7.5 l 0 -166.72 z" fill="none" stroke="#FF2A6D" stroke-width="0.5" opacity="0.5" />
                     <path d="M 415 150.11333333333332 l 0 166.72 l -15 7.5 l 0 -166.72 z" fill="none" stroke="#FF2A6D" stroke-width="0.5" opacity="0.5" />

                     <!-- Details -->
                     <path d="M 404 301.3333333333333 l 7 4" stroke="#FFD1E0" stroke-width="2" stroke-opacity="0.6" /><path d="M 389 303.3333333333333 l 7 -4" stroke="#FFD1E0" stroke-width="2" stroke-opacity="0.4" /><path d="M 404 291.3333333333333 l 7 4" stroke="#FFD1E0" stroke-width="2" stroke-opacity="0.6" /><path d="M 389 293.3333333333333 l 7 -4" stroke="#FFD1E0" stroke-width="2" stroke-opacity="0.4" /><path d="M 404 271.3333333333333 l 7 4" stroke="#FFD1E0" stroke-width="2" stroke-opacity="0.6" /><path d="M 389 273.3333333333333 l 7 -4" stroke="#FFD1E0" stroke-width="2" stroke-opacity="0.4" /><path d="M 404 261.3333333333333 l 7 4" stroke="#FFD1E0" stroke-width="2" stroke-opacity="0.6" /><path d="M 389 263.3333333333333 l 7 -4" stroke="#FFD1E0" stroke-width="2" stroke-opacity="0.4" /><path d="M 404 251.33333333333331 l 7 4" stroke="#FFD1E0" stroke-width="2" stroke-opacity="0.6" /><path d="M 389 253.33333333333331 l 7 -4" stroke="#FFD1E0" stroke-width="2" stroke-opacity="0.4" /><path d="M 389 243.33333333333331 l 7 -4" stroke="#FFD1E0" stroke-width="2" stroke-opacity="0.4" /><path d="M 404 231.33333333333331 l 7 4" stroke="#FFD1E0" stroke-width="2" stroke-opacity="0.6" /><path d="M 389 213.33333333333331 l 7 -4" stroke="#FFD1E0" stroke-width="2" stroke-opacity="0.4" /><path d="M 404 201.33333333333331 l 7 4" stroke="#FFD1E0" stroke-width="2" stroke-opacity="0.6" /><path d="M 389 203.33333333333331 l 7 -4" stroke="#FFD1E0" stroke-width="2" stroke-opacity="0.4" /><path d="M 404 191.33333333333331 l 7 4" stroke="#FFD1E0" stroke-width="2" stroke-opacity="0.6" /><path d="M 404 181.33333333333331 l 7 4" stroke="#FFD1E0" stroke-width="2" stroke-opacity="0.6" /><path d="M 404 161.33333333333331 l 7 4" stroke="#FFD1E0" stroke-width="2" stroke-opacity="0.6" /><path d="M 389 163.33333333333331 l 7 -4" stroke="#FFD1E0" stroke-width="2" stroke-opacity="0.4" />
                     

                     <!-- Tooltip -->
                     <title>Linear_Algebra_Matlab (MATLAB) | Stars: 2</title>
                </g>
            </a>
        

            <a href="https://github.com/nimaldanyathk/E-HealthCare-Management-System" target="_blank">
                <g class="building" opacity="0">
                     <animate attributeName="opacity" values="0;1" dur="0.8s" begin="0.25s" fill="freeze" />
                     
                     <!-- Shadow (Simple Ellipse approx) -->
                     <ellipse cx="352" cy="316.8333333333333" rx="22.5" ry="12" fill="black" opacity="0.4" blur="2" />

                     <!-- Structure -->
                     <path d="M 337 277.5533333333333 l 0 39.28 l 15 7.5 l 0 -39.28 z" fill="url(#gradLeft-energetic)" stroke="none" />
                     <path d="M 367 277.5533333333333 l 0 39.28 l -15 7.5 l 0 -39.28 z" fill="url(#gradRight-energetic)" stroke="none" />
                     <path d="M 352 270.0533333333333 l 15 7.5 l -15 7.5 l -15 -7.5 z" fill="#FAD7FA" fill-opacity="0.9" stroke="none" />
                     
                     <!-- Glow Edge -->
                     <path d="M 337 277.5533333333333 l 0 39.28 l 15 7.5 l 0 -39.28 z" fill="none" stroke="#D300C5" stroke-width="0.5" opacity="0.5" />
                     <path d="M 367 277.5533333333333 l 0 39.28 l -15 7.5 l 0 -39.28 z" fill="none" stroke="#D300C5" stroke-width="0.5" opacity="0.5" />

                     <!-- Details -->
                     
                     

                     <!-- Tooltip -->
                     <title>E-HealthCare-Management-System (null) | Stars: 1</title>
                </g>
            </a>
        

            <a href="https://github.com/nimaldanyathk/TheInspirationalBoat" target="_blank">
                <g class="building" opacity="0">
                     <animate attributeName="opacity" values="0;1" dur="0.8s" begin="0.30000000000000004s" fill="freeze" />
                     
                     <!-- Shadow (Simple Ellipse approx) -->
                     <ellipse cx="472" cy="328.8333333333333" rx="22.5" ry="12" fill="black" opacity="0.4" blur="2" />

                     <!-- Structure -->
                     <path d="M 457 118.83333333333331 l 0 210 l 15 7.5 l 0 -210 z" fill="url(#gradLeft-stressed)" stroke="none" />
                     <path d="M 487 118.83333333333331 l 0 210 l -15 7.5 l 0 -210 z" fill="url(#gradRight-stressed)" stroke="none" />
                     <path d="M 472 111.33333333333331 l 15 7.5 l -15 7.5 l -15 -7.5 z" fill="#FFD1E0" fill-opacity="0.9" stroke="none" />
                     
                     <!-- Glow Edge -->
                     <path d="M 457 118.83333333333331 l 0 210 l 15 7.5 l 0 -210 z" fill="none" stroke="#FF2A6D" stroke-width="0.5" opacity="0.5" />
                     <path d="M 487 118.83333333333331 l 0 210 l -15 7.5 l 0 -210 z" fill="none" stroke="#FF2A6D" stroke-width="0.5" opacity="0.5" />

                     <!-- Details -->
                     <path d="M 461 305.3333333333333 l 7 -4" stroke="#FFD1E0" stroke-width="2" stroke-opacity="0.4" /><path d="M 476 293.3333333333333 l 7 4" stroke="#FFD1E0" stroke-width="2" stroke-opacity="0.6" /><path d="M 461 295.3333333333333 l 7 -4" stroke="#FFD1E0" stroke-width="2" stroke-opacity="0.4" /><path d="M 476 283.3333333333333 l 7 4" stroke="#FFD1E0" stroke-width="2" stroke-opacity="0.6" /><path d="M 461 275.3333333333333 l 7 -4" stroke="#FFD1E0" stroke-width="2" stroke-opacity="0.4" /><path d="M 476 243.33333333333331 l 7 4" stroke="#FFD1E0" stroke-width="2" stroke-opacity="0.6" /><path d="M 461 245.33333333333331 l 7 -4" stroke="#FFD1E0" stroke-width="2" stroke-opacity="0.4" /><path d="M 476 233.33333333333331 l 7 4" stroke="#FFD1E0" stroke-width="2" stroke-opacity="0.6" /><path d="M 476 223.33333333333331 l 7 4" stroke="#FFD1E0" stroke-width="2" stroke-opacity="0.6" /><path d="M 461 225.33333333333331 l 7 -4" stroke="#FFD1E0" stroke-width="2" stroke-opacity="0.4" /><path d="M 476 213.33333333333331 l 7 4" stroke="#FFD1E0" stroke-width="2" stroke-opacity="0.6" /><path d="M 461 215.33333333333331 l 7 -4" stroke="#FFD1E0" stroke-width="2" stroke-opacity="0.4" /><path d="M 461 205.33333333333331 l 7 -4" stroke="#FFD1E0" stroke-width="2" stroke-opacity="0.4" /><path d="M 461 195.33333333333331 l 7 -4" stroke="#FFD1E0" stroke-width="2" stroke-opacity="0.4" /><path d="M 476 173.33333333333331 l 7 4" stroke="#FFD1E0" stroke-width="2" stroke-opacity="0.6" /><path d="M 461 175.33333333333331 l 7 -4" stroke="#FFD1E0" stroke-width="2" stroke-opacity="0.4" /><path d="M 476 163.33333333333331 l 7 4" stroke="#FFD1E0" stroke-width="2" stroke-opacity="0.6" /><path d="M 461 165.33333333333331 l 7 -4" stroke="#FFD1E0" stroke-width="2" stroke-opacity="0.4" /><path d="M 461 155.33333333333331 l 7 -4" stroke="#FFD1E0" stroke-width="2" stroke-opacity="0.4" /><path d="M 476 143.33333333333331 l 7 4" stroke="#FFD1E0" stroke-width="2" stroke-opacity="0.6" /><path d="M 461 145.33333333333331 l 7 -4" stroke="#FFD1E0" stroke-width="2" stroke-opacity="0.4" /><path d="M 476 133.33333333333331 l 7 4" stroke="#FFD1E0" stroke-width="2" stroke-opacity="0.6" /><path d="M 461 135.33333333333331 l 7 -4" stroke="#FFD1E0" stroke-width="2" stroke-opacity="0.4" /><path d="M 461 125.33333333333331 l 7 -4" stroke="#FFD1E0" stroke-width="2" stroke-opacity="0.4" />
                     

                     <!-- Tooltip -->
                     <title>TheInspirationalBoat (HTML) | Stars: 2</title>
                </g>
            </a>
        

            <a href="https://github.com/nimaldanyathk/Othello_DAA_Project" target="_blank">
                <g class="building" opacity="0">
                     <animate attributeName="opacity" values="0;1" dur="0.8s" begin="0.35000000000000003s" fill="freeze" />
                     
                     <!-- Shadow (Simple Ellipse approx) -->
                     <ellipse cx="424" cy="328.8333333333333" rx="22.5" ry="12" fill="black" opacity="0.4" blur="2" />

                     <!-- Structure -->
                     <path d="M 409 146.5533333333333 l 0 182.28 l 15 7.5 l 0 -182.28 z" fill="url(#gradLeft-calm)" stroke="none" />
                     <path d="M 439 146.5533333333333 l 0 182.28 l -15 7.5 l 0 -182.28 z" fill="url(#gradRight-calm)" stroke="none" />
                     <path d="M 424 139.0533333333333 l 15 7.5 l -15 7.5 l -15 -7.5 z" fill="#D1F4FF" fill-opacity="0.9" stroke="none" />
                     
                     <!-- Glow Edge -->
                     <path d="M 409 146.5533333333333 l 0 182.28 l 15 7.5 l 0 -182.28 z" fill="none" stroke="#00C2FF" stroke-width="0.5" opacity="0.5" />
                     <path d="M 439 146.5533333333333 l 0 182.28 l -15 7.5 l 0 -182.28 z" fill="none" stroke="#00C2FF" stroke-width="0.5" opacity="0.5" />

                     <!-- Details -->
                     <path d="M 413 315.3333333333333 l 7 -4" stroke="#D1F4FF" stroke-width="2" stroke-opacity="0.4" /><path d="M 413 305.3333333333333 l 7 -4" stroke="#D1F4FF" stroke-width="2" stroke-opacity="0.4" /><path d="M 428 293.3333333333333 l 7 4" stroke="#D1F4FF" stroke-width="2" stroke-opacity="0.6" /><path d="M 413 295.3333333333333 l 7 -4" stroke="#D1F4FF" stroke-width="2" stroke-opacity="0.4" /><path d="M 428 283.3333333333333 l 7 4" stroke="#D1F4FF" stroke-width="2" stroke-opacity="0.6" /><path d="M 413 285.3333333333333 l 7 -4" stroke="#D1F4FF" stroke-width="2" stroke-opacity="0.4" /><path d="M 428 273.3333333333333 l 7 4" stroke="#D1F4FF" stroke-width="2" stroke-opacity="0.6" /><path d="M 413 275.3333333333333 l 7 -4" stroke="#D1F4FF" stroke-width="2" stroke-opacity="0.4" /><path d="M 428 263.3333333333333 l 7 4" stroke="#D1F4FF" stroke-width="2" stroke-opacity="0.6" /><path d="M 413 265.3333333333333 l 7 -4" stroke="#D1F4FF" stroke-width="2" stroke-opacity="0.4" /><path d="M 428 253.33333333333331 l 7 4" stroke="#D1F4FF" stroke-width="2" stroke-opacity="0.6" /><path d="M 413 255.33333333333331 l 7 -4" stroke="#D1F4FF" stroke-width="2" stroke-opacity="0.4" /><path d="M 413 245.33333333333331 l 7 -4" stroke="#D1F4FF" stroke-width="2" stroke-opacity="0.4" /><path d="M 428 233.33333333333331 l 7 4" stroke="#D1F4FF" stroke-width="2" stroke-opacity="0.6" /><path d="M 413 235.33333333333331 l 7 -4" stroke="#D1F4FF" stroke-width="2" stroke-opacity="0.4" /><path d="M 428 223.33333333333331 l 7 4" stroke="#D1F4FF" stroke-width="2" stroke-opacity="0.6" /><path d="M 413 215.33333333333331 l 7 -4" stroke="#D1F4FF" stroke-width="2" stroke-opacity="0.4" /><path d="M 428 203.33333333333331 l 7 4" stroke="#D1F4FF" stroke-width="2" stroke-opacity="0.6" /><path d="M 413 205.33333333333331 l 7 -4" stroke="#D1F4FF" stroke-width="2" stroke-opacity="0.4" /><path d="M 428 193.33333333333331 l 7 4" stroke="#D1F4FF" stroke-width="2" stroke-opacity="0.6" /><path d="M 413 195.33333333333331 l 7 -4" stroke="#D1F4FF" stroke-width="2" stroke-opacity="0.4" /><path d="M 428 183.33333333333331 l 7 4" stroke="#D1F4FF" stroke-width="2" stroke-opacity="0.6" /><path d="M 428 173.33333333333331 l 7 4" stroke="#D1F4FF" stroke-width="2" stroke-opacity="0.6" /><path d="M 413 175.33333333333331 l 7 -4" stroke="#D1F4FF" stroke-width="2" stroke-opacity="0.4" /><path d="M 428 163.33333333333331 l 7 4" stroke="#D1F4FF" stroke-width="2" stroke-opacity="0.6" /><path d="M 413 165.33333333333331 l 7 -4" stroke="#D1F4FF" stroke-width="2" stroke-opacity="0.4" /><path d="M 413 155.33333333333331 l 7 -4" stroke="#D1F4FF" stroke-width="2" stroke-opacity="0.4" />
                     

                     <!-- Tooltip -->
                     <title>Othello_DAA_Project (Python) | Stars: 1</title>
                </g>
            </a>
        

            <a href="https://github.com/nimaldanyathk/react-bits" target="_blank">
                <g class="building" opacity="0">
                     <animate attributeName="opacity" values="0;1" dur="0.8s" begin="0.4s" fill="freeze" />
                     
                     <!-- Shadow (Simple Ellipse approx) -->
                     <ellipse cx="376" cy="328.8333333333333" rx="22.5" ry="12" fill="black" opacity="0.4" blur="2" />

                     <!-- Structure -->
                     <path d="M 361 123.83333333333331 l 0 205 l 15 7.5 l 0 -205 z" fill="url(#gradLeft-stressed)" stroke="none" />
                     <path d="M 391 123.83333333333331 l 0 205 l -15 7.5 l 0 -205 z" fill="url(#gradRight-stressed)" stroke="none" />
                     <path d="M 376 116.33333333333331 l 15 7.5 l -15 7.5 l -15 -7.5 z" fill="#FFD1E0" fill-opacity="0.9" stroke="none" />
                     
                     <!-- Glow Edge -->
                     <path d="M 361 123.83333333333331 l 0 205 l 15 7.5 l 0 -205 z" fill="none" stroke="#FF2A6D" stroke-width="0.5" opacity="0.5" />
                     <path d="M 391 123.83333333333331 l 0 205 l -15 7.5 l 0 -205 z" fill="none" stroke="#FF2A6D" stroke-width="0.5" opacity="0.5" />

                     <!-- Details -->
                     <path d="M 365 315.3333333333333 l 7 -4" stroke="#FFD1E0" stroke-width="2" stroke-opacity="0.4" /><path d="M 365 305.3333333333333 l 7 -4" stroke="#FFD1E0" stroke-width="2" stroke-opacity="0.4" /><path d="M 380 293.3333333333333 l 7 4" stroke="#FFD1E0" stroke-width="2" stroke-opacity="0.6" /><path d="M 365 295.3333333333333 l 7 -4" stroke="#FFD1E0" stroke-width="2" stroke-opacity="0.4" /><path d="M 380 283.3333333333333 l 7 4" stroke="#FFD1E0" stroke-width="2" stroke-opacity="0.6" /><path d="M 365 285.3333333333333 l 7 -4" stroke="#FFD1E0" stroke-width="2" stroke-opacity="0.4" /><path d="M 380 273.3333333333333 l 7 4" stroke="#FFD1E0" stroke-width="2" stroke-opacity="0.6" /><path d="M 365 275.3333333333333 l 7 -4" stroke="#FFD1E0" stroke-width="2" stroke-opacity="0.4" /><path d="M 380 263.3333333333333 l 7 4" stroke="#FFD1E0" stroke-width="2" stroke-opacity="0.6" /><path d="M 365 265.3333333333333 l 7 -4" stroke="#FFD1E0" stroke-width="2" stroke-opacity="0.4" /><path d="M 380 253.33333333333331 l 7 4" stroke="#FFD1E0" stroke-width="2" stroke-opacity="0.6" /><path d="M 365 255.33333333333331 l 7 -4" stroke="#FFD1E0" stroke-width="2" stroke-opacity="0.4" /><path d="M 380 243.33333333333331 l 7 4" stroke="#FFD1E0" stroke-width="2" stroke-opacity="0.6" /><path d="M 365 245.33333333333331 l 7 -4" stroke="#FFD1E0" stroke-width="2" stroke-opacity="0.4" /><path d="M 380 233.33333333333331 l 7 4" stroke="#FFD1E0" stroke-width="2" stroke-opacity="0.6" /><path d="M 365 235.33333333333331 l 7 -4" stroke="#FFD1E0" stroke-width="2" stroke-opacity="0.4" /><path d="M 365 225.33333333333331 l 7 -4" stroke="#FFD1E0" stroke-width="2" stroke-opacity="0.4" /><path d="M 380 213.33333333333331 l 7 4" stroke="#FFD1E0" stroke-width="2" stroke-opacity="0.6" /><path d="M 365 215.33333333333331 l 7 -4" stroke="#FFD1E0" stroke-width="2" stroke-opacity="0.4" /><path d="M 380 203.33333333333331 l 7 4" stroke="#FFD1E0" stroke-width="2" stroke-opacity="0.6" /><path d="M 365 195.33333333333331 l 7 -4" stroke="#FFD1E0" stroke-width="2" stroke-opacity="0.4" /><path d="M 380 183.33333333333331 l 7 4" stroke="#FFD1E0" stroke-width="2" stroke-opacity="0.6" /><path d="M 365 185.33333333333331 l 7 -4" stroke="#FFD1E0" stroke-width="2" stroke-opacity="0.4" /><path d="M 380 173.33333333333331 l 7 4" stroke="#FFD1E0" stroke-width="2" stroke-opacity="0.6" /><path d="M 365 175.33333333333331 l 7 -4" stroke="#FFD1E0" stroke-width="2" stroke-opacity="0.4" /><path d="M 365 165.33333333333331 l 7 -4" stroke="#FFD1E0" stroke-width="2" stroke-opacity="0.4" />
                     

                     <!-- Tooltip -->
                     <title>react-bits (null) | Stars: 1</title>
                </g>
            </a>
        

            <a href="https://github.com/nimaldanyathk/nimaldanyathk" target="_blank">
                <g class="building" opacity="0">
                     <animate attributeName="opacity" values="0;1" dur="0.8s" begin="0.45s" fill="freeze" />
                     
                     <!-- Shadow (Simple Ellipse approx) -->
                     <ellipse cx="448" cy="340.8333333333333" rx="22.5" ry="12" fill="black" opacity="0.4" blur="2" />

                     <!-- Structure -->
                     <path d="M 433 175.07333333333332 l 0 165.76 l 15 7.5 l 0 -165.76 z" fill="url(#gradLeft-stressed)" stroke="none" />
                     <path d="M 463 175.07333333333332 l 0 165.76 l -15 7.5 l 0 -165.76 z" fill="url(#gradRight-stressed)" stroke="none" />
                     <path d="M 448 167.57333333333332 l 15 7.5 l -15 7.5 l -15 -7.5 z" fill="#FFD1E0" fill-opacity="0.9" stroke="none" />
                     
                     <!-- Glow Edge -->
                     <path d="M 433 175.07333333333332 l 0 165.76 l 15 7.5 l 0 -165.76 z" fill="none" stroke="#FF2A6D" stroke-width="0.5" opacity="0.5" />
                     <path d="M 463 175.07333333333332 l 0 165.76 l -15 7.5 l 0 -165.76 z" fill="none" stroke="#FF2A6D" stroke-width="0.5" opacity="0.5" />

                     <!-- Details -->
                     <path d="M 437 307.3333333333333 l 7 -4" stroke="#FFD1E0" stroke-width="2" stroke-opacity="0.4" /><path d="M 452 295.3333333333333 l 7 4" stroke="#FFD1E0" stroke-width="2" stroke-opacity="0.6" /><path d="M 452 275.3333333333333 l 7 4" stroke="#FFD1E0" stroke-width="2" stroke-opacity="0.6" /><path d="M 437 277.3333333333333 l 7 -4" stroke="#FFD1E0" stroke-width="2" stroke-opacity="0.4" /><path d="M 452 265.3333333333333 l 7 4" stroke="#FFD1E0" stroke-width="2" stroke-opacity="0.6" /><path d="M 437 267.3333333333333 l 7 -4" stroke="#FFD1E0" stroke-width="2" stroke-opacity="0.4" /><path d="M 452 255.33333333333331 l 7 4" stroke="#FFD1E0" stroke-width="2" stroke-opacity="0.6" /><path d="M 437 257.3333333333333 l 7 -4" stroke="#FFD1E0" stroke-width="2" stroke-opacity="0.4" /><path d="M 437 247.33333333333331 l 7 -4" stroke="#FFD1E0" stroke-width="2" stroke-opacity="0.4" /><path d="M 452 235.33333333333331 l 7 4" stroke="#FFD1E0" stroke-width="2" stroke-opacity="0.6" /><path d="M 437 237.33333333333331 l 7 -4" stroke="#FFD1E0" stroke-width="2" stroke-opacity="0.4" /><path d="M 452 225.33333333333331 l 7 4" stroke="#FFD1E0" stroke-width="2" stroke-opacity="0.6" /><path d="M 437 227.33333333333331 l 7 -4" stroke="#FFD1E0" stroke-width="2" stroke-opacity="0.4" /><path d="M 452 215.33333333333331 l 7 4" stroke="#FFD1E0" stroke-width="2" stroke-opacity="0.6" /><path d="M 437 217.33333333333331 l 7 -4" stroke="#FFD1E0" stroke-width="2" stroke-opacity="0.4" /><path d="M 452 205.33333333333331 l 7 4" stroke="#FFD1E0" stroke-width="2" stroke-opacity="0.6" /><path d="M 437 207.33333333333331 l 7 -4" stroke="#FFD1E0" stroke-width="2" stroke-opacity="0.4" /><path d="M 452 195.33333333333331 l 7 4" stroke="#FFD1E0" stroke-width="2" stroke-opacity="0.6" /><path d="M 437 197.33333333333331 l 7 -4" stroke="#FFD1E0" stroke-width="2" stroke-opacity="0.4" /><path d="M 452 185.33333333333331 l 7 4" stroke="#FFD1E0" stroke-width="2" stroke-opacity="0.6" /><path d="M 437 187.33333333333331 l 7 -4" stroke="#FFD1E0" stroke-width="2" stroke-opacity="0.4" />
                     

                     <!-- Tooltip -->
                     <title>nimaldanyathk (null) | Stars: 1</title>
                </g>
            </a>
        
  </g>

  <!-- Footer -->
  <text x="770" y="580" text-anchor="end" fill="rgba(255,255,255,0.4)" font-family="Courier New" font-size="10">GENERATED BY REPOVERSE</text>
</svg>